<svg width="837" height="544" fill="none" xmlns="http://www.w3.org/2000/svg"><path opacity=".7" d="M568 51.002c104.4 7.6 191.833 56.833 222.5 80.499 83 151.5 14 293.5-54.5 338.5s-175.5 80.5-353 71-222.5-45-317-116-52.5-222.5-17-293.5 189.5-130.5 272.5-130.5 116 40.5 246.5 50z" stroke="#F1ECE8" stroke-width="2" stroke-dasharray="9 9"/><g opacity=".5" filter="url(#filter0_f)"><circle cx="8.5" cy="295.501" r="4.5" fill="#B49A85"/></g><g opacity=".5" filter="url(#filter1_f)"><circle cx="640.5" cy="62.502" r="4.5" fill="#B49A85"/></g><g opacity=".5" filter="url(#filter2_f)"><circle cx="619.5" cy="520.501" r="4.5" fill="#B49A85"/></g><g opacity=".5" filter="url(#filter3_f)"><circle cx="269.5" cy="528.501" r="4.5" fill="#CECBC4"/></g><g opacity=".5" filter="url(#filter4_f)"><circle cx="202.5" cy="25.502" r="4.5" fill="#CECBC4"/></g><g opacity=".5" filter="url(#filter5_f)"><circle cx="828.5" cy="267.501" r="4.5" fill="#CECBC4"/></g><defs><filter id="filter0_f" x="0" y="287.001" width="17" height="17" filterUnits="userSpaceOnUse" color-interpolation-filters="sRGB"><feFlood flood-opacity="0" result="BackgroundImageFix"/><feBlend in="SourceGraphic" in2="BackgroundImageFix" result="shape"/><feGaussianBlur stdDeviation="2" result="effect1_foregroundBlur"/></filter><filter id="filter1_f" x="632" y="54.002" width="17" height="17" filterUnits="userSpaceOnUse" color-interpolation-filters="sRGB"><feFlood flood-opacity="0" result="BackgroundImageFix"/><feBlend in="SourceGraphic" in2="BackgroundImageFix" result="shape"/><feGaussianBlur stdDeviation="2" result="effect1_foregroundBlur"/></filter><filter id="filter2_f" x="611" y="512.001" width="17" height="17" filterUnits="userSpaceOnUse" color-interpolation-filters="sRGB"><feFlood flood-opacity="0" result="BackgroundImageFix"/><feBlend in="SourceGraphic" in2="BackgroundImageFix" result="shape"/><feGaussianBlur stdDeviation="2" result="effect1_foregroundBlur"/></filter><filter id="filter3_f" x="261" y="520.001" width="17" height="17" filterUnits="userSpaceOnUse" color-interpolation-filters="sRGB"><feFlood flood-opacity="0" result="BackgroundImageFix"/><feBlend in="SourceGraphic" in2="BackgroundImageFix" result="shape"/><feGaussianBlur stdDeviation="2" result="effect1_foregroundBlur"/></filter><filter id="filter4_f" x="194" y="17.002" width="17" height="17" filterUnits="userSpaceOnUse" color-interpolation-filters="sRGB"><feFlood flood-opacity="0" result="BackgroundImageFix"/><feBlend in="SourceGraphic" in2="BackgroundImageFix" result="shape"/><feGaussianBlur stdDeviation="2" result="effect1_foregroundBlur"/></filter><filter id="filter5_f" x="820" y="259.001" width="17" height="17" filterUnits="userSpaceOnUse" color-interpolation-filters="sRGB"><feFlood flood-opacity="0" result="BackgroundImageFix"/><feBlend in="SourceGraphic" in2="BackgroundImageFix" result="shape"/><feGaussianBlur stdDeviation="2" result="effect1_foregroundBlur"/></filter></defs></svg>