<svg width="25" height="24" viewBox="0 0 25 24" fill="none" xmlns="http://www.w3.org/2000/svg">
<g clip-path="url(#clip0)">
<path d="M19.9731 3.50165C20.8244 3.50165 21.5144 4.2062 21.5144 5.07542C21.5144 5.94464 20.8244 6.64919 19.9731 6.64919H5.08817C4.23708 6.64919 3.54684 5.94464 3.54684 5.07542C3.54684 4.2062 4.23708 3.50165 5.08817 3.50165H19.9731Z" fill="#00ACEA"/>
<path d="M19.9399 6.67185V20.993C19.9399 22.4032 18.954 23.4098 17.7381 23.4098H7.32317C6.10718 23.4098 5.12128 22.4032 5.12128 20.993V6.64923H19.9399V6.67185Z" fill="#00EFD1"/>
<path d="M15.7785 8.69525C15.4745 8.69525 15.228 8.94686 15.228 9.25731V19.8803C15.228 20.1905 15.4745 20.4423 15.7785 20.4423C16.0823 20.4423 16.329 20.1905 16.329 19.8803V9.25731C16.329 8.94686 16.0823 8.69525 15.7785 8.69525Z" fill="#083863"/>
<path d="M9.28299 8.69525C8.97894 8.69525 8.73251 8.94686 8.73251 9.25731V19.8803C8.73251 20.1905 8.97894 20.4423 9.28299 20.4423C9.58682 20.4423 9.83346 20.1905 9.83346 19.8803V9.25731C9.83346 8.94686 9.58682 8.69525 9.28299 8.69525Z" fill="#083863"/>
<path d="M4.54888 7.14497V20.9929C4.54888 21.8114 4.8426 22.5799 5.35631 23.1316C5.86721 23.6847 6.57852 23.9986 7.32316 23.9999H17.738C18.4827 23.9986 19.194 23.6847 19.7049 23.1316C20.2186 22.5799 20.5125 21.8114 20.5125 20.9929V7.14563C20.8705 7.04353 21.1976 6.85077 21.4636 6.58532C22.0588 5.96904 22.2342 5.04823 21.9089 4.24883C21.5836 3.44943 20.8209 2.92689 19.973 2.92272H17.1546V2.22015C17.1579 1.62933 16.9291 1.062 16.5192 0.644624C16.1096 0.227471 15.5533 -0.00481738 14.9747 1.28148e-05H10.0865C9.50784 -0.00481738 8.95157 0.227471 8.54194 0.644624C8.1321 1.062 7.90331 1.62933 7.90675 2.22015V2.92272H5.08817C3.93132 2.93501 2.99659 3.89008 2.98541 5.07128C2.991 6.04281 3.6305 6.89116 4.54888 7.14497ZM17.738 22.8758H7.32316C6.38177 22.8758 5.64982 22.0503 5.64982 20.9929V7.19437H19.4116V20.9929C19.4116 22.0503 18.6794 22.8758 17.738 22.8758ZM9.00769 2.22015C9.00403 1.92748 9.11671 1.64579 9.31991 1.43919C9.52332 1.23259 9.79985 1.11908 10.0865 1.12413H14.9747C15.2613 1.11908 15.5379 1.23259 15.7413 1.43919C15.9445 1.64557 16.0571 1.92748 16.0537 2.22015V2.92272H9.00769V2.22015ZM4.38718 4.35202C4.57189 4.15925 4.82411 4.04947 5.08817 4.04684H19.973C20.5215 4.05145 20.9639 4.50702 20.9639 5.06711C20.9636 5.33452 20.8589 5.59074 20.6729 5.77912C20.4867 5.9675 20.2349 6.07223 19.973 6.07025H5.08817C4.542 6.07157 4.09839 5.62038 4.09732 5.06294C4.09689 4.79574 4.20118 4.53974 4.38718 4.35202Z" fill="#083863"/>
<path d="M12.5307 8.69525C12.2267 8.69525 11.9803 8.94686 11.9803 9.25731V19.8803C11.9803 20.1905 12.2267 20.4423 12.5307 20.4423C12.8346 20.4423 13.0812 20.1905 13.0812 19.8803V9.25731C13.0812 8.94686 12.8346 8.69525 12.5307 8.69525Z" fill="#083863"/>
</g>
<defs>
<clipPath id="clip0">
<rect width="23.5052" height="24" fill="white" transform="translate(0.783508)"/>
</clipPath>
</defs>
</svg>
