<svg width="247" height="152" fill="none" xmlns="http://www.w3.org/2000/svg"><path d="M17.291 139.538v2.9h-4.918v-2.9c-3.969-.147-6.773-1.125-8.412-2.934-1.628-1.82-2.443-4.093-2.443-6.818 0-2.872.854-5.172 2.561-6.902 1.708-1.742 4.472-2.686 8.294-2.833v-2.459h4.918v2.459c3.946.147 6.739 1.12 8.378 2.917 1.651 1.798 2.477 4.076 2.477 6.835 0 2.737-.82 5.009-2.46 6.818-1.639 1.798-4.437 2.77-8.395 2.917zm0-4.189c1.312 0 2.437-.22 3.375-.661.95-.441 1.623-1.035 2.018-1.781.396-.746.594-1.837.594-3.273 0-3.596-1.995-5.394-5.987-5.394v11.109zm-4.918 0V124.24c-2.114 0-3.64.475-4.58 1.425-.938.939-1.407 2.363-1.407 4.274 0 3.607 1.996 5.41 5.987 5.41zm19.877-17.774h4.698v16.553l10.074-16.553h5.003v24.863h-4.698v-16.23l-10.057 16.23h-5.02v-24.863zm24.897 24.863v-24.863h8.056c3.053 0 5.043.125 5.97.373 1.425.373 2.618 1.187 3.579 2.443.96 1.243 1.441 2.854 1.441 4.833 0 1.527-.277 2.81-.83 3.85-.555 1.04-1.261 1.86-2.12 2.459-.849.588-1.714.978-2.596 1.17-1.198.238-2.934.357-5.206.357h-3.274v9.378h-5.02zm5.02-20.657v7.056h2.748c1.978 0 3.301-.13 3.968-.391.668-.26 1.188-.667 1.56-1.221.385-.554.577-1.198.577-1.933 0-.905-.265-1.651-.797-2.239-.531-.588-1.204-.955-2.018-1.102-.6-.113-1.803-.17-3.612-.17h-2.426zm17.605 20.657v-24.863h7.513l4.511 16.96 4.46-16.96h7.531v24.863h-4.664v-19.571l-4.935 19.571h-4.834l-4.918-19.571v19.571h-4.664zm51.422 0h-5.461l-2.171-5.647h-9.938l-2.052 5.647h-5.326l9.684-24.863h5.309l9.955 24.863zm-9.243-9.836l-3.426-9.227-3.358 9.227h6.784zm26.068-4.953h-4.766v-3.409c0-1.379.119-2.464.356-3.256.249-.803.701-1.521 1.357-2.154s1.492-1.13 2.51-1.492l.933 1.967c-.95.317-1.634.758-2.052 1.323-.407.565-.622 1.317-.645 2.256h2.307v4.765zm7.954 0h-4.766v-3.409c0-1.39.119-2.481.356-3.273.249-.791.701-1.504 1.357-2.137.667-.633 1.504-1.13 2.51-1.492l.933 1.967c-.95.317-1.634.758-2.052 1.323-.407.565-.622 1.317-.645 2.256h2.307v4.765zm16.078 14.789h-4.766v-17.96c-1.741 1.628-3.793 2.832-6.156 3.612v-4.324c1.244-.407 2.595-1.176 4.053-2.307 1.459-1.142 2.459-2.471 3.002-3.986h3.867v24.965zm24.1-9.141l4.868 1.543c-.747 2.714-1.99 4.732-3.732 6.055-1.729 1.312-3.929 1.967-6.597 1.967-3.302 0-6.015-1.125-8.141-3.375-2.125-2.261-3.188-5.348-3.188-9.26 0-4.138 1.068-7.349 3.205-9.633 2.137-2.295 4.947-3.443 8.429-3.443 3.042 0 5.512.899 7.412 2.697 1.13 1.063 1.978 2.589 2.544 4.579l-4.969 1.187c-.294-1.289-.911-2.306-1.849-3.053-.927-.746-2.058-1.119-3.392-1.119-1.843 0-3.341.661-4.494 1.984-1.142 1.323-1.713 3.466-1.713 6.428 0 3.143.565 5.382 1.696 6.716 1.13 1.335 2.6 2.002 4.409 2.002 1.334 0 2.482-.424 3.443-1.272.961-.848 1.651-2.183 2.069-4.003zm13.67-5.648h-4.766v-3.409c0-1.379.119-2.464.356-3.256.249-.803.701-1.521 1.357-2.154s1.493-1.13 2.51-1.492l.933 1.967c-.95.317-1.634.758-2.052 1.323-.407.565-.622 1.317-.645 2.256h2.307v4.765zm7.954 0h-4.766v-3.409c0-1.39.119-2.481.357-3.273.248-.791.701-1.504 1.356-2.137.667-.633 1.504-1.13 2.51-1.492l.933 1.967c-.95.317-1.634.758-2.052 1.323-.407.565-.622 1.317-.644 2.256h2.306v4.765zm-95.133-55.794c-8.973 0-16.354-7.236-16.354-16.354 0-9.117 7.236-16.353 16.354-16.353 8.973 0 16.354 7.236 16.354 16.353h13.894c0-16.643-13.605-30.247-30.248-30.247S92.394 38.858 92.394 55.5c0 16.644 13.605 30.248 30.248 30.248h124.174V71.855H122.642z" fill="#CEC4BC"/><path d="M246.816 108.182V93.275H122.642c-20.841 0-37.773-16.932-37.773-37.773 0-20.84 16.932-37.773 37.773-37.773 20.84 0 37.773 16.933 37.773 37.773h14.907c0-29.09-23.59-52.68-52.68-52.68s-52.68 23.59-52.68 52.68 23.59 52.68 52.68 52.68h124.174zM200.472 4.97c1.67 0 3.273.42 4.808 1.26 1.535.831 2.739 2.027 3.612 3.587.882 1.56 1.323 3.193 1.323 4.897 0 1.696-.432 3.316-1.297 4.86a9.19 9.19 0 0 1-3.6 3.6c-1.535.856-3.15 1.284-4.846 1.284-1.696 0-3.316-.428-4.859-1.285a9.296 9.296 0 0 1-3.6-3.6c-.856-1.543-1.285-3.163-1.285-4.859 0-1.704.437-3.337 1.31-4.897.882-1.56 2.091-2.756 3.626-3.587 1.535-.84 3.137-1.26 4.808-1.26zm.013 1.909c-1.34 0-2.625.335-3.855 1.005-1.229.67-2.2 1.632-2.913 2.887-.703 1.255-1.055 2.57-1.055 3.943 0 1.366.343 2.667 1.03 3.905a7.448 7.448 0 0 0 2.9 2.9c1.238.696 2.536 1.044 3.893 1.044 1.365 0 2.662-.348 3.892-1.043a7.448 7.448 0 0 0 2.9-2.9c.695-1.239 1.043-2.54 1.043-3.906 0-1.373-.356-2.688-1.068-3.943a7.233 7.233 0 0 0-2.913-2.887c-1.23-.67-2.515-1.005-3.854-1.005zm-4.414 13.05V9.59h2.098c1.968 0 3.07.008 3.308.025.695.06 1.234.199 1.615.42.39.211.712.542.967.992.263.44.394.932.394 1.475 0 .746-.246 1.387-.738 1.92-.483.527-1.166.853-2.048.98.314.119.556.25.726.395.169.135.402.398.699.788.076.102.331.522.763 1.26l1.221 2.086h-2.594l-.865-1.68c-.586-1.127-1.069-1.835-1.45-2.124-.382-.297-.865-.445-1.451-.445h-.547v4.249h-2.098zm2.098-5.876h.853c1.212 0 1.963-.047 2.251-.14.297-.093.53-.254.7-.483a1.35 1.35 0 0 0 .254-.802 1.22 1.22 0 0 0-.254-.763 1.282 1.282 0 0 0-.7-.483c-.305-.102-1.056-.153-2.251-.153h-.853v2.824zM24.373 108.616V37.701H9.467V23.228h28.221v85.388H24.373z" fill="#CEC4BC"/><path d="M24.373 17.44h19.538v91.176h13.75V2.243H24.372V17.44z" fill="#CEC4BC"/></svg>