<svg width="227" height="105" fill="none" xmlns="http://www.w3.org/2000/svg"><path d="M48.95 90.453c-.289 0-.723-.145-.868-.29-19.827-5.065-34.589-23.01-34.589-44.43a45.623 45.623 0 0 1 7.091-24.459C8.717 29.524.902 43.273.902 58.903c0 25.327 20.55 45.878 45.878 45.878 13.025 0 24.748-5.5 33.142-14.183H48.95v-.145z" fill="#CEC4BC" fill-opacity=".81"/><path d="M59.371 0C43.017 0 28.689 8.539 20.585 21.42c7.38-5.21 16.498-8.25 26.195-8.25 13.315 0 25.327 5.644 33.576 14.762 4.631 2.17 6.947 5.789 7.526 10.999 3.04 6.079 4.631 12.88 4.631 20.117 0 8.104-2.026 15.63-5.789 22.143.29.29.434.579.434 1.013 10.855-8.394 17.801-21.42 17.801-36.181C105.249 20.406 84.698 0 59.371 0z" fill="#CEC4BC"/><path d="M88.027 38.785c.144.869.144 1.737.144 2.605 0 7.237-3.763 12.013-10.854 16.788l-7.815 5.21C61.397 68.889 57.2 73.23 57.2 80.322v.29h28.51c.435 0 .87.145 1.159.434 3.618-6.513 5.789-14.183 5.789-22.143 0-7.236-1.737-14.038-4.631-20.117zM60.384 57.6l8.539-5.645c6.657-4.486 7.96-5.789 7.96-10.565 0-4.63-2.895-6.368-10.131-6.368-5.065 0-12.157.724-17.367 1.303h-.145c-1.013 0-1.592-.724-1.592-1.737v-5.21c0-.868.724-1.447 1.592-1.592 4.487-1.158 11.723-2.17 17.367-2.17 5.79 0 10.276.723 13.604 2.315-8.394-8.973-20.406-14.762-33.576-14.762-9.696 0-18.814 3.04-26.195 8.25a45.623 45.623 0 0 0-7.092 24.458c0 21.274 14.473 39.22 34.156 44.286h.289c-.434-.29-.724-.869-.724-1.447v-8.54c.145-9.406 6.223-17.8 13.315-22.576zm91.611 32.129c-4.342.868-9.986 1.447-18.815 1.447-9.407 0-23.156-6.079-23.156-26.63V52.1c0-20.55 13.17-26.63 23.446-26.63 8.249 0 15.775 1.014 18.669 1.593 1.158.29 1.592.723 1.592 1.881v5.79c0 1.157-.289 1.88-1.736 1.88h-.29c-4.052-.289-9.986-.723-18.235-.723-5.789 0-11.289 4.052-11.289 16.354V64.69c0 12.302 5.934 16.21 11.144 16.21 3.184 0 5.934-.145 8.539-.29V58.468c0-1.013.724-1.737 1.592-1.737h8.539c1.013 0 1.736.724 1.736 1.737v29.09c0 1.158-.578 1.881-1.736 2.17zm22.867.723h-8.539c-1.013 0-1.737-.723-1.737-1.736v-60.93c0-1.013.724-1.592 1.737-1.592h8.539c1.013 0 1.736.724 1.736 1.592v60.93c0 1.013-.723 1.736-1.736 1.736zm28.8.724c-6.513 0-11.144-.579-15.341-1.592-.869-.145-1.592-.724-1.592-1.737v-6.223c0-1.013.723-1.592 1.592-1.592h.144c3.474.434 12.157.868 15.341.868 7.671 0 9.986-2.75 9.986-7.815 0-3.328-1.592-5.065-7.381-8.538l-11.433-6.803c-8.104-4.776-10.275-9.84-10.275-15.775 0-9.552 5.499-16.498 21.708-16.498 5.645 0 13.749.868 16.644 1.592.868.144 1.592.723 1.592 1.592v6.368c0 .868-.579 1.592-1.447 1.592h-.145a168.683 168.683 0 0 0-17.078-.869c-6.368 0-9.117 2.316-9.117 6.079 0 2.894 1.447 4.63 7.091 7.67l10.42 5.79c9.552 5.21 12.012 10.853 12.012 17.656.145 8.972-5.354 18.235-22.721 18.235z" fill="#CEC4BC"/><mask id="mask0" maskUnits="userSpaceOnUse" x="47" y="25" width="41" height="66"><path d="M77.317 58.179l-7.816 5.21C61.397 68.889 57.2 73.23 57.2 80.322v.289h28.51c1.014 0 1.738.579 1.738 1.592v6.513c0 1.013-.724 1.736-1.737 1.736H48.95c-1.014 0-1.737-.723-1.737-1.736v-8.54c0-9.551 5.934-17.945 13.17-22.721l8.539-5.644c6.657-4.487 7.96-5.79 7.96-10.565 0-4.631-2.895-6.368-10.131-6.368-5.066 0-12.157.724-17.367 1.302h-.145c-1.013 0-1.592-.723-1.592-1.736v-5.21c0-.869.724-1.448 1.592-1.592 4.486-1.158 11.723-2.171 17.367-2.171 15.196 0 21.275 5.065 21.275 15.775.29 7.236-3.474 12.157-10.565 16.933z" fill="#CEC4BC"/></mask></svg>