<svg width="255" height="153" fill="none" xmlns="http://www.w3.org/2000/svg"><path fill-rule="evenodd" clip-rule="evenodd" d="M26.34 152.83h200.444l-99.716-99.571L26.34 152.83zm-3.908-4.921l15.63-15.196-5.21-5.355-9.696 9.552-17.367-17.802L0 124.897l22.432 23.012zm19.104-18.67l16.064-15.63-4.486-4.487-10.13 9.841-4.921-4.92 8.249-7.96-4.631-4.776-8.105 7.96-4.197-4.342 9.841-9.552-4.486-4.486-15.92 15.63 22.722 22.722zM93.927 55.14c5.21 5.355 8.104 15.34.144 23.156-5.354 5.355-15.34 8.394-23.734-.145-7.526-7.815-4.776-18.38.578-23.59 5.355-5.21 16.499-6.078 23.012.579zm-7.237 5.79c5.79 5.933 6.079 9.407 2.46 12.88-3.473 3.474-7.96 2.605-13.025-2.605-4.197-4.342-3.907-8.539-.868-11.578 2.17-2.026 6.368-3.907 11.433 1.303zm25.182-.29l5.934-5.79-8.828-9.117-5.355-22.143-6.802 6.657 3.618 12.591-12.012-4.486-6.368 6.368 20.262 6.512 9.551 9.407zm-45.009 43.997l-5.934 5.789-22.722-22.867L49.93 75.981c5.5-5.065 11-2.026 11-2.026 6.211 3.289 4.837 10.063 4.419 12.126-.079.388-.124.61-.078.61.724-.145 15.051 4.776 15.051 4.776l-5.933 5.789-19.828-5.21 12.302 12.591zm-17.801-18.38c.144.144 5.355 5.5 5.355 5.5s.434-.29 3.907-3.474c3.329-3.184-.145-5.934-.145-5.934-2.026-2.17-4.486-.579-4.776-.29-.169.17-.622.586-1.176 1.094-1.34 1.231-3.268 3.001-3.165 3.104zm61.074-58.18l-5.355-5.355L127.792 0l7.526 7.526-8.25 16.209 16.789-7.526 7.236 7.236-23.011 22.722-5.5-5.5 12.157-12.011-16.644 7.525-3.328-3.473 7.67-16.499-12.301 11.868zm39.799 40.088l-15.919-16.064 22.866-22.722 15.92 16.064-4.631 4.632-9.986-10.131-3.763 3.763 7.96 7.96-4.776 4.776-7.815-7.96-5.066 4.92 9.842 9.986-4.632 4.776zm52.39 6.948l5.789 5.934-17.222 17.222 9.697 9.697-5.644 5.644-15.631-15.775 23.011-22.722zm-3.183 42.548l22.866-22.722 5.789 5.934-23.011 22.722-5.644-5.934zm16.209 16.355l-5.5-5.355 23.012-22.722 7.815 7.816-6.802 23.59 15.196-15.052 5.355 5.355-23.012 22.722-6.802-6.947 5.934-24.748-15.196 15.341zm-54.417-54.707l-5.933-5.934 23.011-22.722 13.894 14.039c4.341 6.078-1.158 11.433-1.158 11.433-5.644 4.92-10.855 2.026-10.855 2.026-.144.724-4.92 15.341-4.92 15.341l-6.079-6.079 4.487-20.55-12.447 12.446zm18.38-18.38c-.578.723-5.499 5.5-5.499 5.5l4.052 4.196c2.605 2.605 5.5.58 5.5.58 3.374-3.105.958-5.329.265-5.966l-.121-.113-4.197-4.197z" fill="#CEC4BC"/></svg>