<svg width="146" height="141" fill="none" xmlns="http://www.w3.org/2000/svg"><path d="M112.925 99.37l29.258-29.258c4.431-4.432 4.431-11.642 0-16.074a11.294 11.294 0 0 0-5.481-3.032 11.335 11.335 0 0 0 1.054-4.79 11.29 11.29 0 0 0-3.329-8.037 11.274 11.274 0 0 0-6.103-3.163c1.295-3.946.38-8.465-2.753-11.597a11.299 11.299 0 0 0-6.099-3.154c.375-1.137.572-2.337.572-3.569 0-3.036-1.182-5.89-3.329-8.036a11.29 11.29 0 0 0-8.036-3.329 11.3 11.3 0 0 0-5.428 1.376l-.291-.312A20.126 20.126 0 0 0 88.274 0H64.59a3.016 3.016 0 0 0-3.016 3.016v3.955c0 1.583.267 3.124.78 4.573a11.349 11.349 0 0 0-4.362-.865c-3.036 0-5.89 1.183-8.037 3.33-3.134 3.133-4.048 7.655-2.75 11.602a11.3 11.3 0 0 0-6.106 3.156 11.292 11.292 0 0 0-3.328 8.037c0 1.229.197 2.427.57 3.561a11.278 11.278 0 0 0-6.098 3.162c-3.46 3.461-4.218 8.617-2.273 12.82a11.29 11.29 0 0 0-5.483 3.04c-4.431 4.43-4.431 11.641 0 16.073l6.017 6.016L.883 111.097a3.017 3.017 0 0 0 4.265 4.266l29.908-29.908a11.294 11.294 0 0 0 5.617 1.483c3.036 0 5.89-1.182 8.036-3.329a11.334 11.334 0 0 0 3.313-8.495 11.334 11.334 0 0 0 8.495-3.312 11.292 11.292 0 0 0 3.317-8.495 11.33 11.33 0 0 0 8.49-3.312 11.292 11.292 0 0 0 3.318-8.496 11.33 11.33 0 0 0 8.49-3.313c4.163-4.163 4.414-10.78.754-15.24l20.02-20.02a5.297 5.297 0 0 1 3.771-1.562c1.425 0 2.764.554 3.772 1.562a5.3 5.3 0 0 1 1.562 3.771 5.296 5.296 0 0 1-1.563 3.771l-2.951 2.952-10.71 10.71a3.016 3.016 0 0 0 4.264 4.266l10.711-10.71a5.339 5.339 0 0 1 7.542 0 5.34 5.34 0 0 1 0 7.542l-2.952 2.952-7.758 7.758a3.016 3.016 0 0 0 4.265 4.266l7.758-7.758a5.295 5.295 0 0 1 3.771-1.563c1.425 0 2.764.555 3.771 1.563a5.295 5.295 0 0 1 1.562 3.77 5.295 5.295 0 0 1-1.562 3.772l-4.052 4.052-3.706 3.706a3.016 3.016 0 0 0 4.265 4.265l3.709-3.709a5.34 5.34 0 0 1 7.54.003 5.34 5.34 0 0 1 0 7.543l-29.258 29.258a40.858 40.858 0 0 1-27.494 11.977 3.019 3.019 0 0 0-2.028.885l-27.027 27.128a3.017 3.017 0 0 0 4.273 4.258l19.88-19.953a28.031 28.031 0 0 0 17.026 4.38l15.559 15.56a3.01 3.01 0 0 0 2.132.883 3.017 3.017 0 0 0 2.133-5.149l-16.543-16.544a3.02 3.02 0 0 0-2.379-.874l-.956.078a22.02 22.02 0 0 1-12.586-2.739l1.939-1.945a46.863 46.863 0 0 0 30.339-13.682zm-68.48-20.026a5.297 5.297 0 0 1-3.772 1.563 5.296 5.296 0 0 1-3.77-1.563l-8.15-8.149a5.34 5.34 0 0 1 0-7.543 5.297 5.297 0 0 1 3.771-1.562c1.425 0 2.764.555 3.771 1.562l8.15 8.15a5.34 5.34 0 0 1 0 7.542zm11.807-11.808a5.34 5.34 0 0 1-7.542 0l-8.15-8.15-4.052-4.051a5.34 5.34 0 0 1 0-7.543 5.298 5.298 0 0 1 3.771-1.562c1.425 0 2.764.555 3.771 1.562l12.202 12.201a5.298 5.298 0 0 1 1.562 3.772 5.3 5.3 0 0 1-1.562 3.771zM68.06 55.728a5.34 5.34 0 0 1-7.543 0L45.364 40.575a5.297 5.297 0 0 1-1.562-3.77c0-1.425.554-2.765 1.562-3.772a5.317 5.317 0 0 1 3.771-1.56c1.365 0 2.73.52 3.769 1.558l6.906 6.906 8.25 8.249a5.299 5.299 0 0 1 1.561 3.771 5.295 5.295 0 0 1-1.561 3.771zm11.808-11.807a5.34 5.34 0 0 1-7.543 0L57.172 28.767l-.005-.005-2.947-2.946a5.34 5.34 0 0 1 0-7.543 5.316 5.316 0 0 1 3.771-1.56c1.366 0 2.732.52 3.771 1.56l18.105 18.105a5.297 5.297 0 0 1 1.562 3.77 5.295 5.295 0 0 1-1.561 3.773zm.793-15.28l-8.284-8.284c.94.2 1.905.307 2.888.307h.067l8.276-.04a3.016 3.016 0 0 0-.014-6.031h-.014l-8.277.039h-.037a7.61 7.61 0 0 1-5.404-2.231 7.61 7.61 0 0 1-2.256-5.43v-.94h20.667a14.07 14.07 0 0 1 10.27 4.473l.124.132L80.66 28.64z" fill="#F1ECE8" fill-opacity=".7"/></svg>