<svg width="423" height="237" fill="none" xmlns="http://www.w3.org/2000/svg"><mask id="path-1-inside-1" fill="#fff"><path fill-rule="evenodd" clip-rule="evenodd" d="M20 0C8.954 0 0 8.954 0 20v181c0 11.046 8.954 20 20 20h169.903l17.802 14.535a6.501 6.501 0 0 0 8.222 0L233.729 221H403c11.046 0 20-8.954 20-20V20c0-11.046-8.954-20-20-20H20z"/></mask><path fill-rule="evenodd" clip-rule="evenodd" d="M20 0C8.954 0 0 8.954 0 20v181c0 11.046 8.954 20 20 20h169.903l17.802 14.535a6.501 6.501 0 0 0 8.222 0L233.729 221H403c11.046 0 20-8.954 20-20V20c0-11.046-8.954-20-20-20H20z" fill="#fff"/><path d="M189.903 221l1.897-2.324-.828-.676h-1.069v3zm17.802 14.535l-1.898 2.324 1.898-2.324zm8.222 0l1.897 2.324-1.897-2.324zM233.729 221v-3h-1.07l-.828.676 1.898 2.324zM3 20c0-9.389 7.611-17 17-17v-6C7.297-3-3 7.297-3 20h6zm0 181V20h-6v181h6zm17 17c-9.389 0-17-7.611-17-17h-6c0 12.703 10.297 23 23 23v-6zm169.903 0H20v6h169.903v-6zm-1.898 5.324l17.802 14.535 3.795-4.648-17.802-14.535-3.795 4.648zm17.802 14.535a9.5 9.5 0 0 0 12.017 0l-3.795-4.648a3.5 3.5 0 0 1-4.427 0l-3.795 4.648zm12.017 0l17.802-14.535-3.795-4.648-17.802 14.535 3.795 4.648zM403 218H233.729v6H403v-6zm17-17c0 9.389-7.611 17-17 17v6c12.703 0 23-10.297 23-23h-6zm0-181v181h6V20h-6zM403 3c9.389 0 17 7.611 17 17h6c0-12.703-10.297-23-23-23v6zM20 3h383v-6H20v6z" fill="url(#paint0_linear)" mask="url(#path-1-inside-1)"/><defs><linearGradient id="paint0_linear" x1="0" y1="133.796" x2="423" y2="133.796" gradientUnits="userSpaceOnUse"><stop stop-color="#F48922"/><stop offset="1" stop-color="#FFB015"/></linearGradient></defs></svg>