<svg width="423" height="220" fill="none" xmlns="http://www.w3.org/2000/svg"><mask id="path-1-inside-1" fill="#fff"><path fill-rule="evenodd" clip-rule="evenodd" d="M20 0C8.954 0 0 8.954 0 20v162.799c0 11.045 8.954 20 20 20h168.799l18.858 15.696a6.5 6.5 0 0 0 8.317 0l18.859-15.696H403c11.046 0 20-8.955 20-20V20c0-11.046-8.954-20-20-20H20z"/></mask><path fill-rule="evenodd" clip-rule="evenodd" d="M20 0C8.954 0 0 8.954 0 20v162.799c0 11.045 8.954 20 20 20h168.799l18.858 15.696a6.5 6.5 0 0 0 8.317 0l18.859-15.696H403c11.046 0 20-8.955 20-20V20c0-11.046-8.954-20-20-20H20z" fill="#fff"/><path d="M188.799 202.799l1.919-2.306-.834-.694h-1.085v3zm18.858 15.696l-1.919 2.306 1.919-2.306zm8.317 0l-1.919-2.306v.001l1.919 2.305zm18.859-15.696v-3h-1.086l-.834.694 1.92 2.306zM3 20c0-9.389 7.611-17 17-17v-6C7.297-3-3 7.297-3 20h6zm0 162.799V20h-6v162.799h6zm17 17c-9.389 0-17-7.611-17-17h-6c0 12.702 10.297 23 23 23v-6zm168.799 0H20v6h168.799v-6zm-1.919 5.306l18.858 15.696 3.839-4.612-18.859-15.696-3.838 4.612zm18.858 15.696a9.5 9.5 0 0 0 12.155 0l-3.838-4.611a3.5 3.5 0 0 1-4.478-.001l-3.839 4.612zm12.155 0l18.859-15.696-3.839-4.612-18.858 15.696 3.838 4.612zM403 199.799H234.833v6H403v-6zm17-17c0 9.389-7.611 17-17 17v6c12.703 0 23-10.298 23-23h-6zM420 20v162.799h6V20h-6zM403 3c9.389 0 17 7.611 17 17h6c0-12.703-10.297-23-23-23v6zM20 3h383v-6H20v6z" fill="url(#paint0_linear)" mask="url(#path-1-inside-1)"/><defs><linearGradient id="paint0_linear" x1="0" y1="114.818" x2="423" y2="114.818" gradientUnits="userSpaceOnUse"><stop stop-color="#F48922"/><stop offset="1" stop-color="#FFB015"/></linearGradient></defs></svg>