<svg width="423" height="191" fill="none" xmlns="http://www.w3.org/2000/svg"><mask id="path-1-inside-1" fill="#fff"><path fill-rule="evenodd" clip-rule="evenodd" d="M20 0C8.954 0 0 8.954 0 20v134c0 11.046 8.954 20 20 20h169.296l18.402 15.067a6.5 6.5 0 0 0 8.236 0L234.335 174H403c11.046 0 20-8.954 20-20V20c0-11.046-8.954-20-20-20H20z"/></mask><path fill-rule="evenodd" clip-rule="evenodd" d="M20 0C8.954 0 0 8.954 0 20v134c0 11.046 8.954 20 20 20h169.296l18.402 15.067a6.5 6.5 0 0 0 8.236 0L234.335 174H403c11.046 0 20-8.954 20-20V20c0-11.046-8.954-20-20-20H20z" fill="#fff"/><path d="M189.296 174l1.901-2.321-.829-.679h-1.072v3zm18.402 15.067l1.9-2.321-1.9 2.321zm8.236 0l-1.901-2.321 1.901 2.321zM234.335 174v-3h-1.071l-.829.679 1.9 2.321zM3 20c0-9.389 7.611-17 17-17v-6C7.297-3-3 7.297-3 20h6zm0 134V20h-6v134h6zm17 17c-9.389 0-17-7.611-17-17h-6c0 12.703 10.297 23 23 23v-6zm169.296 0H20v6h169.296v-6zm-1.9 5.321l18.401 15.067 3.801-4.642-18.401-15.067-3.801 4.642zm18.401 15.067a9.5 9.5 0 0 0 12.037 0l-3.801-4.642a3.5 3.5 0 0 1-4.435 0l-3.801 4.642zm12.037 0l18.402-15.067-3.801-4.642-18.402 15.067 3.801 4.642zM403 171H234.335v6H403v-6zm17-17c0 9.389-7.611 17-17 17v6c12.703 0 23-10.297 23-23h-6zm0-134v134h6V20h-6zM403 3c9.389 0 17 7.611 17 17h6c0-12.703-10.297-23-23-23v6zM20 3h383v-6H20v6z" fill="url(#paint0_linear)" mask="url(#path-1-inside-1)"/><defs><linearGradient id="paint0_linear" x1="0" y1="87.041" x2="423" y2="87.041" gradientUnits="userSpaceOnUse"><stop stop-color="#F48922"/><stop offset="1" stop-color="#FFB015"/></linearGradient></defs></svg>