<svg width="423" height="171" fill="none" xmlns="http://www.w3.org/2000/svg"><mask id="path-1-inside-1" fill="#fff"><path fill-rule="evenodd" clip-rule="evenodd" d="M20 0C8.954 0 0 8.954 0 20v115.917c0 11.045 8.954 20 20 20h169.129l18.841 13.824a6.501 6.501 0 0 0 7.691 0l18.841-13.824H403c11.046 0 20-8.955 20-20V20c0-11.046-8.954-20-20-20H20z"/></mask><path fill-rule="evenodd" clip-rule="evenodd" d="M20 0C8.954 0 0 8.954 0 20v115.917c0 11.045 8.954 20 20 20h169.129l18.841 13.824a6.501 6.501 0 0 0 7.691 0l18.841-13.824H403c11.046 0 20-8.955 20-20V20c0-11.046-8.954-20-20-20H20z" fill="#fff"/><path d="M189.129 155.917l1.775-2.419-.792-.581h-.983v3zm18.841 13.824l1.775-2.419-1.775 2.419zm7.691 0l1.775 2.419-1.775-2.419zm18.841-13.824v-3h-.982l-.793.581 1.775 2.419zM3 20c0-9.389 7.611-17 17-17v-6C7.297-3-3 7.297-3 20h6zm0 115.917V20h-6v115.917h6zm17 17c-9.389 0-17-7.612-17-17h-6c0 12.702 10.297 23 23 23v-6zm169.129 0H20v6h169.129v-6zm-1.775 5.418l18.842 13.825 3.549-4.838-18.841-13.824-3.55 4.837zm18.842 13.825a9.5 9.5 0 0 0 11.24 0l-3.55-4.838a3.5 3.5 0 0 1-4.141 0l-3.549 4.838zm11.24 0l18.841-13.825-3.55-4.837-18.841 13.824 3.55 4.838zM403 152.917H234.502v6H403v-6zm17-17c0 9.388-7.611 17-17 17v6c12.703 0 23-10.298 23-23h-6zM420 20v115.917h6V20h-6zM403 3c9.389 0 17 7.611 17 17h6c0-12.703-10.297-23-23-23v6zM20 3h383v-6H20v6z" fill="url(#paint0_linear)" mask="url(#path-1-inside-1)"/><defs><linearGradient id="paint0_linear" x1="0" y1="78.116" x2="423" y2="78.116" gradientUnits="userSpaceOnUse"><stop stop-color="#F48922"/><stop offset="1" stop-color="#FFB015"/></linearGradient></defs></svg>