<svg width="423" height="183" fill="none" xmlns="http://www.w3.org/2000/svg"><mask id="path-1-inside-1" fill="#fff"><path fill-rule="evenodd" clip-rule="evenodd" d="M20 0C8.954 0 0 8.954 0 20v127.021c0 11.046 8.954 20 20 20h169.237l18.562 14.589a6.499 6.499 0 0 0 8.033 0l18.562-14.589H403c11.046 0 20-8.954 20-20V20c0-11.046-8.954-20-20-20H20z"/></mask><path fill-rule="evenodd" clip-rule="evenodd" d="M20 0C8.954 0 0 8.954 0 20v127.021c0 11.046 8.954 20 20 20h169.237l18.562 14.589a6.499 6.499 0 0 0 8.033 0l18.562-14.589H403c11.046 0 20-8.954 20-20V20c0-11.046-8.954-20-20-20H20z" fill="#fff"/><path d="M189.237 167.021l1.854-2.358-.816-.642h-1.038v3zm18.562 14.589l1.854-2.358-1.854 2.358zm8.033 0l-1.854-2.358 1.854 2.358zm18.562-14.589v-3h-1.038l-.816.642 1.854 2.358zM3 20c0-9.389 7.611-17 17-17v-6C7.297-3-3 7.297-3 20h6zm0 127.021V20h-6v127.021h6zm17 17c-9.389 0-17-7.611-17-17h-6c0 12.703 10.297 23 23 23v-6zm169.237 0H20v6h169.237v-6zm-1.853 5.359l18.561 14.589 3.708-4.717-18.562-14.589-3.707 4.717zm18.561 14.589a9.5 9.5 0 0 0 11.741 0l-3.708-4.717a3.5 3.5 0 0 1-4.325 0l-3.708 4.717zm11.741 0l18.562-14.589-3.708-4.717-18.562 14.589 3.708 4.717zM403 164.021H234.394v6H403v-6zm17-17c0 9.389-7.611 17-17 17v6c12.703 0 23-10.297 23-23h-6zM420 20v127.021h6V20h-6zM403 3c9.389 0 17 7.611 17 17h6c0-12.703-10.297-23-23-23v6zM20 3h383v-6H20v6z" fill="url(#paint0_linear)" mask="url(#path-1-inside-1)"/><defs><linearGradient id="paint0_linear" x1="0" y1="83.598" x2="423" y2="83.598" gradientUnits="userSpaceOnUse"><stop stop-color="#F48922"/><stop offset="1" stop-color="#FFB015"/></linearGradient></defs></svg>