<svg width="53" height="53" fill="none" xmlns="http://www.w3.org/2000/svg"><path d="M50.35 16.783H25.617a2.653 2.653 0 0 0-2.65 2.65V50.35a2.653 2.653 0 0 0 2.65 2.65H50.35A2.653 2.653 0 0 0 53 50.35V19.433a2.653 2.653 0 0 0-2.65-2.65zm.883 33.567a.884.884 0 0 1-.883.883H25.617a.884.884 0 0 1-.884-.883V19.433c0-.488.396-.883.884-.883H50.35c.488 0 .883.395.883.883V50.35z" fill="#322823"/><path d="M46.817 20.317H29.15a2.653 2.653 0 0 0-2.65 2.65v2.65a2.653 2.653 0 0 0 2.65 2.65h17.667a2.653 2.653 0 0 0 2.65-2.65v-2.65a2.653 2.653 0 0 0-2.65-2.65zm.883 5.3a.884.884 0 0 1-.883.883H29.15a.884.884 0 0 1-.883-.883v-2.65c0-.488.395-.883.883-.884h17.667c.487 0 .883.396.883.884v2.65zm-15.9 4.416h-1.767a1.769 1.769 0 0 0-1.766 1.767v1.767a1.769 1.769 0 0 0 1.766 1.766H31.8a1.769 1.769 0 0 0 1.767-1.766V31.8a1.769 1.769 0 0 0-1.767-1.767zm-1.767 3.534V31.8H31.8v1.767h-1.767zm8.834-3.534H37.1a1.769 1.769 0 0 0-1.767 1.767v1.767a1.769 1.769 0 0 0 1.767 1.766h1.767a1.769 1.769 0 0 0 1.766-1.766V31.8a1.769 1.769 0 0 0-1.766-1.767zM37.1 33.567V31.8h1.767v1.767H37.1zm8.833-3.534h-1.766A1.769 1.769 0 0 0 42.4 31.8v1.767a1.769 1.769 0 0 0 1.767 1.766h1.766a1.769 1.769 0 0 0 1.767-1.766V31.8a1.769 1.769 0 0 0-1.767-1.767zm-1.766 3.534V31.8h1.766l.001 1.767h-1.767zM31.8 37.1h-1.767a1.769 1.769 0 0 0-1.766 1.767v1.766a1.769 1.769 0 0 0 1.766 1.767H31.8a1.769 1.769 0 0 0 1.767-1.767v-1.766A1.769 1.769 0 0 0 31.8 37.1zm-1.767 3.533v-1.766H31.8v1.766h-1.767zm8.834-3.533H37.1a1.769 1.769 0 0 0-1.767 1.767v1.766A1.769 1.769 0 0 0 37.1 42.4h1.767a1.769 1.769 0 0 0 1.766-1.767v-1.766a1.769 1.769 0 0 0-1.766-1.767zM37.1 40.633v-1.766h1.767v1.766H37.1zm8.833-3.533h-1.766a1.769 1.769 0 0 0-1.767 1.767v1.766a1.769 1.769 0 0 0 1.767 1.767h1.766a1.769 1.769 0 0 0 1.767-1.767v-1.766a1.769 1.769 0 0 0-1.767-1.767zm-1.766 3.533v-1.766h1.766l.001 1.766h-1.767zM31.8 44.167h-1.767a1.769 1.769 0 0 0-1.766 1.766V47.7a1.769 1.769 0 0 0 1.766 1.767H31.8a1.769 1.769 0 0 0 1.767-1.767v-1.767a1.769 1.769 0 0 0-1.767-1.766zM30.033 47.7v-1.767H31.8V47.7h-1.767zm8.834-3.533H37.1a1.769 1.769 0 0 0-1.767 1.766V47.7a1.769 1.769 0 0 0 1.767 1.767h1.767a1.769 1.769 0 0 0 1.766-1.767v-1.767a1.769 1.769 0 0 0-1.766-1.766zM37.1 47.7v-1.767h1.767V47.7H37.1zm8.833-3.533h-1.766a1.769 1.769 0 0 0-1.767 1.766V47.7a1.769 1.769 0 0 0 1.767 1.767h1.766A1.769 1.769 0 0 0 47.7 47.7v-1.767a1.769 1.769 0 0 0-1.767-1.766zM44.167 47.7v-1.767h1.766l.001 1.767h-1.767z" fill="#322823"/><path d="M1.767 48.584V12.367h7.95a2.653 2.653 0 0 0 2.65-2.65v-7.95H34.45c.488 0 .883.395.883.883v12.367H37.1V2.65A2.653 2.653 0 0 0 34.45 0H12.215a2.633 2.633 0 0 0-1.874.776L.776 10.341A2.634 2.634 0 0 0 0 12.215v36.369a2.653 2.653 0 0 0 2.65 2.65H21.2v-1.767H2.65a.884.884 0 0 1-.883-.883zM10.6 3.016v6.7a.884.884 0 0 1-.883.884H3.016L10.6 3.016z" fill="#322823"/><path d="M19.433 22.083a7.066 7.066 0 1 0-7.066 7.067 7.075 7.075 0 0 0 7.066-7.067zm-7.95-5.22v3.454a.884.884 0 0 1-.883.883H7.147a5.305 5.305 0 0 1 4.336-4.337zm.884 10.52a5.304 5.304 0 0 1-5.22-4.416H10.6a2.653 2.653 0 0 0 2.65-2.65v-3.454a5.297 5.297 0 0 1-.883 10.52zm6.625-17.666a1.327 1.327 0 0 0 1.325-1.325v-2.65a1.327 1.327 0 0 0-1.325-1.325h-2.65c-.732 0-1.324.593-1.325 1.325v2.65c0 .731.593 1.324 1.325 1.325h2.65zm-2.209-3.534h1.767V7.95h-1.767V6.183zm5.3-.883a.883.883 0 1 1 1.767 0 .883.883 0 0 1-1.767 0zm3.534 0c0-.488.395-.883.883-.883h6.183a.883.883 0 0 1 0 1.766H26.5a.883.883 0 0 1-.883-.883zm-3.534 3.533a.883.883 0 1 1 1.767 0 .883.883 0 0 1-1.767 0zm3.534 0c0-.488.395-.883.883-.883h6.183a.883.883 0 0 1 0 1.767H26.5a.883.883 0 0 1-.883-.884zm-10.6 3.534a.883.883 0 1 1 1.766 0 .883.883 0 0 1-1.766 0zm3.533 0c0-.488.395-.884.883-.884h9.717a.883.883 0 1 1 0 1.767h-9.717a.883.883 0 0 1-.883-.883zm13.25 0a.883.883 0 1 1 1.767 0 .883.883 0 0 1-1.767 0zm-11.925 18.55h-2.65c-.732 0-1.324.593-1.325 1.325v2.65c0 .731.593 1.324 1.325 1.325h2.65a1.327 1.327 0 0 0 1.325-1.325v-2.65a1.327 1.327 0 0 0-1.325-1.325zm-.442 3.533h-1.766v-1.767h1.766v1.767zm-7.066-2.65a.883.883 0 1 1 1.766 0 .883.883 0 0 1-1.766 0zm-8.834 0c0-.488.396-.883.884-.883h5.3a.883.883 0 0 1 0 1.766h-5.3a.883.883 0 0 1-.884-.883zm8.834 3.533a.883.883 0 1 1 1.766 0 .883.883 0 0 1-1.766 0zm-8.834 0c0-.487.396-.883.884-.883h5.3a.883.883 0 0 1 0 1.767h-5.3a.883.883 0 0 1-.884-.884zm0 10.159a1.327 1.327 0 0 0 1.325 1.325h2.65a1.326 1.326 0 0 0 1.325-1.325v-2.65c0-.732-.593-1.325-1.325-1.325h-2.65c-.731 0-1.324.593-1.325 1.325v2.65zM5.3 43.283h1.767v1.767H5.3v-1.767zm5.3-.883a.883.883 0 1 1 1.767 0 .883.883 0 0 1-1.767 0zm3.533 0c0-.488.396-.883.884-.883h5.3a.883.883 0 1 1 0 1.766h-5.3a.883.883 0 0 1-.884-.883zM10.6 45.933a.883.883 0 1 1 1.767 0 .883.883 0 0 1-1.767 0zm3.533 0c0-.487.396-.883.884-.883h5.3a.883.883 0 1 1 0 1.767h-5.3a.883.883 0 0 1-.884-.884zm5.3-7.066a.883.883 0 1 1 1.767 0 .883.883 0 0 1-1.767 0zm-12.366 0c0-.488.395-.884.883-.884h8.833a.883.883 0 1 1 0 1.767H7.95a.883.883 0 0 1-.883-.883zm-3.534 0a.883.883 0 1 1 1.767 0 .883.883 0 0 1-1.767 0z" fill="#322823"/></svg>