<svg width="84" height="26" fill="none" xmlns="http://www.w3.org/2000/svg"><path fill-rule="evenodd" clip-rule="evenodd" d="M2.805.208a2.02 2.02 0 0 0-2.02 2.02v21.554a2.02 2.02 0 0 0 2.02 2.02h78.802a2.02 2.02 0 0 0 2.02-2.02V2.229a2.02 2.02 0 0 0-2.02-2.02H2.805zM9.927 21.37H8.395V8.371h1.263l.135 1.044h.05c.825-.673 1.852-1.28 2.913-1.28 2.357 0 3.637 1.853 3.637 4.665 0 3.131-1.869 4.933-3.974 4.933-.825 0-1.7-.387-2.525-1.06l.033 1.599v3.098zm0-5.876c.825.707 1.633.96 2.24.96 1.515 0 2.626-1.365 2.626-3.638 0-2.02-.673-3.384-2.407-3.384-.775 0-1.566.438-2.459 1.263v4.799zm15.628 1.296c-.808.522-1.785.943-3.03.943-2.426 0-4.379-1.768-4.379-4.782 0-2.963 2.004-4.816 4.125-4.816 2.324 0 3.637 1.684 3.637 4.294 0 .337-.033.657-.067.876h-6.163c.101 1.953 1.297 3.199 3.031 3.199.893 0 1.617-.27 2.29-.724l.556 1.01zm-3.267-7.425c-1.296 0-2.441 1.043-2.626 2.845h4.9c0-1.852-.842-2.845-2.274-2.845zm7.253 8.15H28.16V8.37h1.768l1.802 4.294c.127.365.257.718.386 1.067.145.393.288.78.422 1.172h.084a70.8 70.8 0 0 1 .217-.553c.218-.553.436-1.105.625-1.686l1.751-4.294h1.768v9.143h-1.397V13.39c0-.792.097-2.15.164-3.092l.004-.057h-.067c-.187.503-.399 1.021-.6 1.517-.09.218-.177.432-.26.638l-1.733 4.26h-1.028l-1.768-4.26a40.892 40.892 0 0 1-.841-2.155h-.085c.017.303.04.652.064 1.014.05.765.105 1.586.105 2.135v4.125zm18.32-4.564c0 3.03-2.004 4.782-4.243 4.782-2.24 0-4.243-1.751-4.243-4.782 0-3.048 2.003-4.816 4.243-4.816s4.243 1.768 4.243 4.816zm-6.887 0c0 2.105 1.061 3.502 2.644 3.502 1.583 0 2.66-1.397 2.66-3.502 0-2.105-1.077-3.536-2.66-3.536-1.583 0-2.644 1.431-2.644 3.536zm10.835 4.563h-1.533V8.371h1.533v3.704h4.411V8.371h1.532v9.143H56.22V13.44h-4.41v4.075zm12.576 0h-1.532V9.617H59.79V8.371h7.678v1.246h-3.082v7.897zm9.822-1.094c-.876.724-1.903 1.313-3.031 1.313-1.532 0-2.677-.943-2.677-2.593 0-1.987 1.734-2.98 5.624-3.418 0-1.179-.388-2.307-1.886-2.307-1.061 0-2.02.488-2.745.977l-.606-1.061c.842-.539 2.138-1.196 3.603-1.196 2.223 0 3.166 1.499 3.166 3.755v5.624h-1.263l-.135-1.094h-.05zm-4.21-1.381c0 1.044.707 1.465 1.617 1.465.892 0 1.616-.421 2.509-1.213v-2.559c-3.082.37-4.126 1.128-4.126 2.307z" fill="#937E6C"/></svg>