<svg width="129" height="113" fill="none" xmlns="http://www.w3.org/2000/svg"><g filter="url(#filter0_f)"><ellipse rx="14.5" ry="6.5" transform="matrix(-1 0 0 1 64.5 56.5)" fill="#4A76A8"/></g><g filter="url(#filter1_d)"><circle r="14.5" transform="matrix(-1 0 0 1 64.5 44.5)" fill="#4A76A8"/></g><path fill-rule="evenodd" clip-rule="evenodd" d="M70.83 46.147c.572.553 1.175 1.073 1.688 1.682.227.27.44.55.605.864.232.447.022.938-.382.965l-2.51-.002c-.648.054-1.164-.205-1.599-.643-.347-.351-.67-.725-1.003-1.088a2.37 2.37 0 0 0-.452-.398c-.343-.22-.64-.153-.836.201-.2.36-.245.76-.264 1.161-.027.586-.206.74-.8.767-1.269.06-2.473-.13-3.592-.765-.986-.56-1.751-1.35-2.417-2.243-1.296-1.742-2.289-3.655-3.181-5.621-.2-.443-.054-.681.44-.69a68.722 68.722 0 0 1 2.457 0c.333.004.553.193.682.505.443 1.08.985 2.108 1.666 3.06.18.254.365.507.629.686.29.197.513.132.65-.19.086-.204.124-.423.144-.642.065-.75.073-1.5-.04-2.249-.07-.467-.336-.77-.806-.858-.24-.045-.204-.133-.088-.27.202-.233.392-.379.77-.379h2.837c.447.087.546.286.607.732l.002 3.124c-.004.172.087.684.4.798.252.081.417-.117.567-.275.68-.715 1.164-1.56 1.598-2.434.192-.385.357-.784.517-1.183.119-.296.305-.442.642-.435l2.73.002c.081 0 .163.001.242.015.46.077.586.274.444.719-.224.699-.66 1.281-1.086 1.866-.455.625-.942 1.228-1.394 1.856-.415.574-.382.863.133 1.362z" fill="#fff"/><defs><filter id="filter0_f" x="0" y="0" width="129" height="113" filterUnits="userSpaceOnUse" color-interpolation-filters="sRGB"><feFlood flood-opacity="0" result="BackgroundImageFix"/><feBlend in="SourceGraphic" in2="BackgroundImageFix" result="shape"/><feGaussianBlur stdDeviation="25" result="effect1_foregroundBlur"/></filter><filter id="filter1_d" x="42.616" y="24.093" width="43.767" height="43.767" filterUnits="userSpaceOnUse" color-interpolation-filters="sRGB"><feFlood flood-opacity="0" result="BackgroundImageFix"/><feColorMatrix in="SourceAlpha" values="0 0 0 0 0 0 0 0 0 0 0 0 0 0 0 0 0 0 127 0"/><feOffset dy="1.477"/><feGaussianBlur stdDeviation="3.692"/><feColorMatrix values="0 0 0 0 0.576471 0 0 0 0 0.494118 0 0 0 0 0.423529 0 0 0 0.1 0"/><feBlend in2="BackgroundImageFix" result="effect1_dropShadow"/><feBlend in="SourceGraphic" in2="effect1_dropShadow" result="shape"/></filter></defs></svg>