<svg width="313" height="191" fill="none" xmlns="http://www.w3.org/2000/svg"><path opacity=".7" d="M311.925 95.077C313.27 44.679 296.226 11.36 287.535 1h-232c-31.359 0-68.123 32.927-49.5 94.077C24.656 156.227 85.048 190 158.654 190c73.605 0 151.588-31.925 153.27-94.923z" stroke="#F1ECE8" stroke-width=".6"/><g opacity=".5" filter="url(#filter0_f)"><circle cx="305.5" cy="40.5" r="1.5" fill="#CECBC4"/></g><g opacity=".5" filter="url(#filter1_f)"><circle cx="53.5" cy="161.5" r="1.5" fill="#B49A85"/></g><path opacity=".7" d="M188.49 156.969c123.328-1.232 133.556-117.5 22.094-139.227C99.121-3.984 29.667 30.657 22.314 66.76c-7.354 36.103 12.015 91.748 166.176 90.209z" stroke="#F1ECE8" stroke-width=".6" stroke-dasharray="3.1 3.1"/><g opacity=".5" filter="url(#filter2_f)"><circle cx="65.5" cy="25.5" r="1.5" fill="#CECBC4"/></g><g opacity=".5" filter="url(#filter3_f)"><circle cx="246.5" cy="145.5" r="1.5" fill="#B49A85"/></g><defs><filter id="filter0_f" x="302.623" y="37.623" width="5.753" height="5.753" filterUnits="userSpaceOnUse" color-interpolation-filters="sRGB"><feFlood flood-opacity="0" result="BackgroundImageFix"/><feBlend in="SourceGraphic" in2="BackgroundImageFix" result="shape"/><feGaussianBlur stdDeviation=".688" result="effect1_foregroundBlur"/></filter><filter id="filter1_f" x="50.623" y="158.623" width="5.753" height="5.753" filterUnits="userSpaceOnUse" color-interpolation-filters="sRGB"><feFlood flood-opacity="0" result="BackgroundImageFix"/><feBlend in="SourceGraphic" in2="BackgroundImageFix" result="shape"/><feGaussianBlur stdDeviation=".688" result="effect1_foregroundBlur"/></filter><filter id="filter2_f" x="62.623" y="22.623" width="5.753" height="5.753" filterUnits="userSpaceOnUse" color-interpolation-filters="sRGB"><feFlood flood-opacity="0" result="BackgroundImageFix"/><feBlend in="SourceGraphic" in2="BackgroundImageFix" result="shape"/><feGaussianBlur stdDeviation=".688" result="effect1_foregroundBlur"/></filter><filter id="filter3_f" x="243.623" y="142.623" width="5.753" height="5.753" filterUnits="userSpaceOnUse" color-interpolation-filters="sRGB"><feFlood flood-opacity="0" result="BackgroundImageFix"/><feBlend in="SourceGraphic" in2="BackgroundImageFix" result="shape"/><feGaussianBlur stdDeviation=".688" result="effect1_foregroundBlur"/></filter></defs></svg>