<svg width="225" height="200" fill="none" xmlns="http://www.w3.org/2000/svg"><path d="M223.585 57.256a4.556 4.556 0 0 0-3.225-1.336l-65.763.001a4.56 4.56 0 0 0 0 9.124l61.201-.002v125.833H30.286c-14.258 0-20.897-11.604-21.154-23.109v-.047a25.92 25.92 0 0 1 6.684-18.699 19.428 19.428 0 0 1 14.47-5.73h11.15a4.564 4.564 0 0 0 4.562-4.562V65.047l66.463-.001a4.563 4.563 0 0 0 3.226-7.788 4.563 4.563 0 0 0-3.226-1.336l-66.463.002V5.363A4.563 4.563 0 0 0 42.53.934C41.899.78 26.922-2.792 14.51 5.147 6.99 9.956 2.135 17.797.081 28.45a4.554 4.554 0 0 0-.082.863l.004 58.185a4.562 4.562 0 1 0 9.123 0L9.124 29.76c1.594-7.856 5.04-13.537 10.247-16.892 6.044-3.895 13.305-3.975 17.503-3.586v124.886h-6.588a28.624 28.624 0 0 0-20.992 8.474c-.057.059-.106.127-.163.187l-.001-17.707a4.563 4.563 0 0 0-7.788-3.226 4.563 4.563 0 0 0-1.336 3.226l.003 42.733.002.025c.001.026-.002.05-.001.076C.348 183.389 9.967 200 30.286 200H220.36a4.565 4.565 0 0 0 4.562-4.562V60.482a4.566 4.566 0 0 0-1.337-3.226z" fill="#F1ECE8" fill-opacity=".7"/><path d="M62.193 92.062H73.93a4.562 4.562 0 0 0 0-9.124H62.193a4.562 4.562 0 1 0 0 9.124zm0 12.54H73.93a4.56 4.56 0 0 0 3.226-7.788 4.562 4.562 0 0 0-3.226-1.336H62.193a4.562 4.562 0 1 0 0 9.124zm0 12.541h15.389a4.564 4.564 0 0 0 4.561-4.562 4.563 4.563 0 0 0-4.561-4.562h-15.39a4.564 4.564 0 0 0-4.56 4.562 4.563 4.563 0 0 0 4.56 4.562zm0 12.54h41.86a4.565 4.565 0 0 0 4.562-4.562 4.565 4.565 0 0 0-4.562-4.562h-41.86a4.564 4.564 0 0 0-4.562 4.562 4.563 4.563 0 0 0 4.562 4.562zm0 46.073h41.86a4.561 4.561 0 1 0 0-9.123h-41.86a4.56 4.56 0 0 0-4.562 4.562 4.56 4.56 0 0 0 4.562 4.561zm26.117-63.175a4.56 4.56 0 0 0 4.562 4.562h15.388a4.565 4.565 0 0 0 4.562-4.562 4.565 4.565 0 0 0-4.562-4.562H92.872a4.564 4.564 0 0 0-4.562 4.562zm-7.25-12.541a4.56 4.56 0 0 0 4.56 4.562h11.738a4.562 4.562 0 0 0 0-9.124H85.621a4.562 4.562 0 0 0-4.562 4.562zm18.986-17.102H88.309a4.562 4.562 0 0 0 0 9.124h11.737a4.562 4.562 0 1 0 0-9.124zm-42.415 73.251a4.561 4.561 0 0 0 4.562 4.561h16.061a4.56 4.56 0 0 0 4.562-4.561v-16.062a4.56 4.56 0 0 0-4.562-4.562H62.193a4.56 4.56 0 0 0-4.562 4.562v16.062zm9.124-11.5h6.937v6.938h-6.937v-6.938zm46.403 11.5v-16.062a4.56 4.56 0 0 0-4.562-4.562h-16.06a4.56 4.56 0 0 0-4.563 4.562v16.062a4.56 4.56 0 0 0 4.562 4.561h16.061a4.56 4.56 0 0 0 4.562-4.561zm-9.123-4.562h-6.938v-6.938h6.938v6.938zm30.471 12.449h41.569a4.56 4.56 0 0 0 4.562-4.561v-19.422a24.51 24.51 0 0 0 17.279-31.155 24.503 24.503 0 0 0-42.654-7.687 24.506 24.506 0 0 0-5.026 12.133h-15.73a4.559 4.559 0 0 0-4.561 4.561v41.57a4.559 4.559 0 0 0 4.561 4.561zm37.008-32.617a15.45 15.45 0 0 1-11.07-8.952h11.07v8.952zm3.041-30.487a15.391 15.391 0 0 1 6.082 29.534v-12.561a4.559 4.559 0 0 0-4.562-4.561h-16.62a15.416 15.416 0 0 1 15.1-12.412zm-35.487 21.535h11.777a24.548 24.548 0 0 0 20.669 18.171v14.275h-32.446v-32.446z" fill="#F1ECE8" fill-opacity=".7"/><path d="M200.973 143.149h-12.229a4.562 4.562 0 0 0 0 9.124h12.229a4.561 4.561 0 0 0 0-9.124zm-.346 11.518h-12.228a4.562 4.562 0 0 0 0 9.124h12.228a4.563 4.563 0 0 0 4.562-4.562 4.56 4.56 0 0 0-4.562-4.562z" fill="#F1ECE8" fill-opacity=".7"/></svg>