<svg width="481" height="304" fill="none" xmlns="http://www.w3.org/2000/svg"><mask id="path-1-inside-1" fill="#fff"><path fill-rule="evenodd" clip-rule="evenodd" d="M20 0C8.954 0 0 8.954 0 20v247.49c0 11.046 8.954 20 20 20h198.332l18.366 15.038a6.5 6.5 0 0 0 8.236 0L263.3 287.49H461c11.046 0 20-8.954 20-20V20c0-11.046-8.954-20-20-20H20z"/></mask><path fill-rule="evenodd" clip-rule="evenodd" d="M20 0C8.954 0 0 8.954 0 20v247.49c0 11.046 8.954 20 20 20h198.332l18.366 15.038a6.5 6.5 0 0 0 8.236 0L263.3 287.49H461c11.046 0 20-8.954 20-20V20c0-11.046-8.954-20-20-20H20z" fill="#fff"/><path d="M218.332 287.491l1.9-2.321-.829-.679h-1.071v3zm18.366 15.038l1.9-2.321-1.9 2.321zm8.236 0l-1.901-2.321 1.901 2.321zm18.366-15.038v-3h-1.072l-.829.679 1.901 2.321zM3 20c0-9.39 7.611-17 17-17v-6C7.297-3-3 7.297-3 20h6zm0 247.49V20h-6v247.49h6zm17 17c-9.389 0-17-7.611-17-17h-6c0 12.702 10.297 23 23 23v-6zm198.332 0H20v6h198.332v-6zm-1.901 5.321l18.366 15.038 3.801-4.642-18.366-15.038-3.801 4.642zm18.366 15.038a9.5 9.5 0 0 0 12.037 0l-3.801-4.642a3.5 3.5 0 0 1-4.435 0l-3.801 4.642zm12.037 0l18.366-15.038-3.801-4.642-18.366 15.038 3.801 4.642zM461 284.491H263.3v6H461v-6zm17-17c0 9.389-7.611 17-17 17v6c12.703 0 23-10.298 23-23h-6zM478 20v247.49h6V20h-6zM461 3c9.389 0 17 7.61 17 17h6c0-12.703-10.297-23-23-23v6zM20 3h441v-6H20v6z" fill="url(#paint0_linear)" mask="url(#path-1-inside-1)"/><defs><linearGradient id="paint0_linear" x1="29" y1="200.686" x2="452" y2="200.686" gradientUnits="userSpaceOnUse"><stop stop-color="#F48922"/><stop offset="1" stop-color="#FFB015"/></linearGradient></defs></svg>