<svg width="290" height="318" fill="none" xmlns="http://www.w3.org/2000/svg"><mask id="path-1-inside-1" fill="#fff"><path fill-rule="evenodd" clip-rule="evenodd" d="M0 298c0 11.046 8.954 20 20 20h250c11.046 0 20-8.954 20-20V38c0-11.046-8.954-20-20-20H166.804L149.232 1.73a6.5 6.5 0 0 0-8.832 0L122.828 18H20C8.954 18 0 26.954 0 38v260z"/></mask><path fill-rule="evenodd" clip-rule="evenodd" d="M0 298c0 11.046 8.954 20 20 20h250c11.046 0 20-8.954 20-20V38c0-11.046-8.954-20-20-20H166.804L149.232 1.73a6.5 6.5 0 0 0-8.832 0L122.828 18H20C8.954 18 0 26.954 0 38v260z" fill="#fff"/><path d="M166.804 18v3h-1.176l-.862-.799L166.804 18zM149.232 1.73l-2.038 2.202 2.038-2.201zm-8.832 0l2.038 2.202L140.4 1.73zM122.828 18l2.038 2.201-.863.799h-1.175v-3zM20 321c-12.703 0-23-10.297-23-23h6c0 9.389 7.611 17 17 17v6zm250 0H20v-6h250v6zm23-23c0 12.703-10.297 23-23 23v-6c9.389 0 17-7.611 17-17h6zm0-260v260h-6V38h6zm-23-23c12.703 0 23 10.297 23 23h-6c0-9.389-7.611-17-17-17v-6zm-103.196 0H270v6H166.804v-6zM151.27-.47l17.572 16.269-4.076 4.402-17.572-16.27L151.27-.47zm-12.909 0a9.5 9.5 0 0 1 12.909 0l-4.076 4.402a3.5 3.5 0 0 0-4.756 0l-4.077-4.403zm-17.572 16.269l17.572-16.27 4.077 4.403-17.572 16.27-4.077-4.403zM20 15h102.828v6H20v-6zM-3 38c0-12.703 10.297-23 23-23v6c-9.389 0-17 7.611-17 17h-6zm0 260V38h6v260h-6z" fill="url(#paint0_linear)" mask="url(#path-1-inside-1)"/><defs><linearGradient id="paint0_linear" x1="-67" y1="116.907" x2="356" y2="116.907" gradientUnits="userSpaceOnUse"><stop stop-color="#F48922"/><stop offset="1" stop-color="#FFB015"/></linearGradient></defs></svg>