<svg width="481" height="344" fill="none" xmlns="http://www.w3.org/2000/svg"><mask id="path-1-inside-1" fill="#fff"><path fill-rule="evenodd" clip-rule="evenodd" d="M20 0C8.954 0 0 8.954 0 20v285.657c0 11.046 8.954 20 20 20h198.457L236.4 342.27a6.5 6.5 0 0 0 8.832 0l17.942-16.613H461c11.046 0 20-8.954 20-20V20c0-11.046-8.954-20-20-20H20z"/></mask><path fill-rule="evenodd" clip-rule="evenodd" d="M20 0C8.954 0 0 8.954 0 20v285.657c0 11.046 8.954 20 20 20h198.457L236.4 342.27a6.5 6.5 0 0 0 8.832 0l17.942-16.613H461c11.046 0 20-8.954 20-20V20c0-11.046-8.954-20-20-20H20z" fill="#fff"/><path d="M218.457 325.657l2.038-2.201-.863-.799h-1.175v3zM236.4 342.27l2.038-2.202-2.038 2.202zm8.832 0l-2.038-2.202 2.038 2.202zm17.942-16.613v-3h-1.175l-.863.799 2.038 2.201zM3 20c0-9.389 7.611-17 17-17v-6C7.297-3-3 7.297-3 20h6zm0 285.657V20h-6v285.657h6zm17 17c-9.389 0-17-7.611-17-17h-6c0 12.703 10.297 23 23 23v-6zm198.457 0H20v6h198.457v-6zm-2.038 5.202l17.942 16.612 4.077-4.403-17.943-16.612-4.076 4.403zm17.942 16.612a9.501 9.501 0 0 0 12.909 0l-4.076-4.403a3.499 3.499 0 0 1-4.756 0l-4.077 4.403zm12.909 0l17.942-16.612-4.076-4.403-17.942 16.612 4.076 4.403zM461 322.657H263.174v6H461v-6zm17-17c0 9.389-7.611 17-17 17v6c12.703 0 23-10.297 23-23h-6zM478 20v285.657h6V20h-6zM461 3c9.389 0 17 7.611 17 17h6c0-12.703-10.297-23-23-23v6zM20 3h441v-6H20v6z" fill="url(#paint0_linear)" mask="url(#path-1-inside-1)"/><defs><linearGradient id="paint0_linear" x1="29" y1="227.093" x2="452" y2="227.093" gradientUnits="userSpaceOnUse"><stop stop-color="#F48922"/><stop offset="1" stop-color="#FFB015"/></linearGradient></defs></svg>