<svg width="22" height="22" fill="none" xmlns="http://www.w3.org/2000/svg"><path d="M11 21c5.523 0 10-4.477 10-10S16.523 1 11 1a9.955 9.955 0 0 0-5.833 1.877m-1.364 1.18A9.967 9.967 0 0 0 1 11c0 4.849 3.45 8.891 8.03 9.806" stroke="url(#paint0_linear)" stroke-linecap="round"/><path fill-rule="evenodd" clip-rule="evenodd" d="M10.5 15.714a.357.357 0 1 0 .714 0v-4.428h4.429a.357.357 0 0 0 0-.715h-4.429V6.428a.357.357 0 0 0-.714 0v4.143H6.357a.357.357 0 1 0 0 .715H10.5v4.428z" fill="url(#paint1_linear)"/><defs><linearGradient id="paint0_linear" x1="1" y1="11" x2="21" y2="11" gradientUnits="userSpaceOnUse"><stop stop-color="#F48922"/><stop offset="1" stop-color="#FFB015"/></linearGradient><linearGradient id="paint1_linear" x1="15.899" y1="6.071" x2="6" y2="15.971" gradientUnits="userSpaceOnUse"><stop stop-color="#FFB015"/><stop offset="1" stop-color="#F48922"/></linearGradient></defs></svg>