<svg width="22" height="22" fill="none" xmlns="http://www.w3.org/2000/svg"><path d="M11 21c5.523 0 10-4.477 10-10S16.523 1 11 1a9.955 9.955 0 0 0-5.833 1.877m-1.364 1.18A9.967 9.967 0 0 0 1 11c0 4.849 3.45 8.891 8.03 9.806" stroke="url(#paint0_linear)" stroke-linecap="round"/><path fill-rule="evenodd" clip-rule="evenodd" d="M7.363 14a.357.357 0 0 0 .506.506L11 11.374l3.132 3.132a.357.357 0 1 0 .505-.505l-3.132-3.132 2.93-2.93a.357.357 0 1 0-.506-.504L11 10.364l-2.93-2.93a.357.357 0 0 0-.505.506l2.93 2.929-3.132 3.132z" fill="url(#paint1_linear)"/><defs><linearGradient id="paint0_linear" x1="1" y1="11" x2="21" y2="11" gradientUnits="userSpaceOnUse"><stop stop-color="#F48922"/><stop offset="1" stop-color="#FFB015"/></linearGradient><linearGradient id="paint1_linear" x1="18" y1="11" x2="4" y2="11" gradientUnits="userSpaceOnUse"><stop stop-color="#FFB015"/><stop offset="1" stop-color="#F48922"/></linearGradient></defs></svg>