<svg width="481" height="323" fill="none" xmlns="http://www.w3.org/2000/svg"><mask id="path-1-inside-1" fill="#fff"><path fill-rule="evenodd" clip-rule="evenodd" d="M20 0C8.954 0 0 8.954 0 20v265.614c0 11.046 8.954 20 20 20h198.377l18.175 15.792a6.5 6.5 0 0 0 8.527 0l18.175-15.792H461c11.046 0 20-8.954 20-20V20c0-11.046-8.954-20-20-20H20z"/></mask><path fill-rule="evenodd" clip-rule="evenodd" d="M20 0C8.954 0 0 8.954 0 20v265.614c0 11.046 8.954 20 20 20h198.377l18.175 15.792a6.5 6.5 0 0 0 8.527 0l18.175-15.792H461c11.046 0 20-8.954 20-20V20c0-11.046-8.954-20-20-20H20z" fill="#fff"/><path d="M218.377 305.614l1.968-2.264-.846-.736h-1.122v3zm18.175 15.792l1.968-2.264-1.968 2.264zm8.527 0l-1.968-2.264 1.968 2.264zm18.175-15.792v-3h-1.121l-.847.736 1.968 2.264zM3 20c0-9.389 7.611-17 17-17v-6C7.297-3-3 7.297-3 20h6zm0 265.614V20h-6v265.614h6zm17 17c-9.389 0-17-7.611-17-17h-6c0 12.703 10.297 23 23 23v-6zm198.377 0H20v6h198.377v-6zm-1.967 5.265l18.175 15.792 3.935-4.529-18.175-15.792-3.935 4.529zm18.175 15.792a9.5 9.5 0 0 0 12.462 0l-3.936-4.529a3.5 3.5 0 0 1-4.591 0l-3.935 4.529zm12.462 0l18.175-15.792-3.936-4.529-18.175 15.792 3.936 4.529zM461 302.614H263.254v6H461v-6zm17-17c0 9.389-7.611 17-17 17v6c12.703 0 23-10.297 23-23h-6zM478 20v265.614h6V20h-6zM461 3c9.389 0 17 7.611 17 17h6c0-12.703-10.297-23-23-23v6zM20 3h441v-6H20v6z" fill="url(#paint0_linear)" mask="url(#path-1-inside-1)"/><defs><linearGradient id="paint0_linear" x1="29" y1="213.229" x2="452" y2="213.229" gradientUnits="userSpaceOnUse"><stop stop-color="#F48922"/><stop offset="1" stop-color="#FFB015"/></linearGradient></defs></svg>