<svg width="221" height="221" fill="none" xmlns="http://www.w3.org/2000/svg"><path d="M120.087 63.578a17.449 17.449 0 0 0-5.594-.92H96.008a14.953 14.953 0 0 0-5.1.337 4.875 4.875 0 0 0-3.091 4.137c-.138 1.725.882 2.62 1.244 4.169a16.91 16.91 0 0 1 0 3.539v15.275c0 4.462-.1 8.791 1.688 13.013a21.427 21.427 0 0 0 36.327 5.252c3.824-4.657 4.867-10.094 4.867-15.941 0-4.11.051-8.222 0-12.33a17.677 17.677 0 0 0-11.856-16.531zm-5.594 8.775a7.828 7.828 0 0 1 7.691 6.818c-6.938-.6-14.178-2.408-19.728-6.818h12.037zm7.755 22.442a11.74 11.74 0 0 1-3.442 8.305 11.741 11.741 0 0 1-8.306 3.439A11.75 11.75 0 0 1 98.756 94.79c-.036-1.982 0-3.968 0-5.95v-7.23a44.287 44.287 0 0 0 16.392 6.383c1.852.35 3.72.61 5.596.791 1.417.137 1.505-.132 1.505 1.172l-.001 4.84z" fill="#fff"/><path d="M175.451 91.265a67.736 67.736 0 0 0-60.21-48.33 67.733 67.733 0 0 0-66.36 39.464 67.696 67.696 0 0 0 100.664 83.404 68.322 68.322 0 0 0 24.804-33.15 68.326 68.326 0 0 0 1.102-41.388zm-35.397 69.004c-.24.64-1.698 1.134-2.354 1.484a57.557 57.557 0 0 1-5.407 2.535 58.28 58.28 0 0 1-51.343-3.862v-14.885c0-4.478-.76-10.05 1.41-14.136a10.498 10.498 0 0 1 5.207-4.671c.977-.424 4.23-1.779 4.867-1.002.357.862.573 1.776.64 2.707l1.067 4.514 2.027 8.578c.71 3.007 2.63 5.887 6.244 4.967 3.206-.816 3.99-4.663 5.041-7.344l3.001-7.65 3.71 9.665a21.09 21.09 0 0 0 1.482 3.615 4.91 4.91 0 0 0 3.585 2.228 4.906 4.906 0 0 0 3.986-1.389 7.671 7.671 0 0 0 1.653-3.948l1.302-5.511 1.487-6.29.548-2.32a5.051 5.051 0 0 1 .349-1.478c.392-.489 2.304.222 2.94.403a12.658 12.658 0 0 1 4.711 2.371 11.326 11.326 0 0 1 3.777 7.662c.24 2.409.07 4.932.07 7.35v12.94c.165 1.15.165 2.317 0 3.467zm14.827-12.42a58.464 58.464 0 0 1-5.133 5.355c0-5.669.335-11.438-.065-17.095a21.036 21.036 0 0 0-7.645-15.024 25.835 25.835 0 0 0-17.668-5.103c-4.629.485-4.881 6.291-5.725 9.835-1.392-3.677-3.863-6.666-8.143-6.689-4.199-.023-6.729 2.833-8.143 6.447-.716-3.026-.928-8.016-4.09-9.55a9.171 9.171 0 0 0-4.57-.413 33.804 33.804 0 0 0-5.281.71 23.735 23.735 0 0 0-8.28 3.456 20.734 20.734 0 0 0-8.716 14.558 64.266 64.266 0 0 0-.166 8.199v10.669a58.03 58.03 0 1 1 83.625-5.355zm9.501-86.382a4.831 4.831 0 0 0 3.427-1.42l12.838-12.839.198 7.924a4.846 4.846 0 1 0 9.691-.24l-.44-17.709a8.24 8.24 0 0 0-.129-2.303c-.006-.035-.02-.068-.027-.102a4.91 4.91 0 0 0-.384-1.083c-.03-.063-.064-.123-.097-.185a4.693 4.693 0 0 0-.36-.577l-.014-.017a4.028 4.028 0 0 0-1.498-1.324 5.103 5.103 0 0 0-.544-.286l-.036-.013a8.66 8.66 0 0 0-4.048-.423l-.194.013-16.656-.42a4.845 4.845 0 0 0-4.997 4.724 4.859 4.859 0 0 0 1.344 3.473 4.853 4.853 0 0 0 3.41 1.495l7.926.2-12.837 12.837a4.846 4.846 0 0 0 3.427 8.274zM99.909 21.609l5.745-5.464v18.157a4.847 4.847 0 0 0 9.694 0V16.146l5.744 5.462a4.846 4.846 0 1 0 6.68-7.024L114.936 2.372a8.441 8.441 0 0 0-1.628-1.465A4.655 4.655 0 0 0 109.202.2a5.148 5.148 0 0 0-.571.177l-.048.022a8.7 8.7 0 0 0-3.145 2.551l-12.21 11.634a4.848 4.848 0 0 0 6.681 7.026zM35.188 59.858l.123.001a4.848 4.848 0 0 0 4.844-4.726l.2-7.924 12.838 12.838a4.847 4.847 0 0 0 6.854-6.856L47.21 40.354l7.924-.2a4.847 4.847 0 0 0-.243-9.69l-17.705.44a8.386 8.386 0 0 0-2.303.128c-.04.008-.076.023-.115.031a5.362 5.362 0 0 0-.582.173 4.68 4.68 0 0 0-.484.205c-.068.033-.135.07-.203.106-.195.104-.382.22-.56.35l-.04.032a3.997 3.997 0 0 0-1.322 1.513 5.128 5.128 0 0 0-.266.507l-.023.06a8.746 8.746 0 0 0-.417 4.04l.013.19-.42 16.652a4.848 4.848 0 0 0 4.724 4.967z" fill="#fff"/><path d="M16.146 115.347h18.157a4.847 4.847 0 0 0 0-9.694H16.146l5.463-5.744a4.847 4.847 0 0 0-7.025-6.681L2.372 106.064a8.272 8.272 0 0 0-1.534 1.714c-.023.034-.039.072-.061.106a4.907 4.907 0 0 0-.489 1.03c-.021.062-.04.126-.06.19-.067.22-.119.444-.155.67v.006a4.067 4.067 0 0 0 .14 2.066c.044.174.098.346.16.514.01.025.023.048.033.073a8.737 8.737 0 0 0 2.546 3.134l11.632 12.205a4.844 4.844 0 0 0 6.853.172 4.85 4.85 0 0 0 .172-6.853l-5.463-5.744zm37.047 45.606l-12.838 12.838-.2-7.926a4.846 4.846 0 0 0-6.819-4.327 4.846 4.846 0 0 0-2.872 4.573l.442 17.702a8.242 8.242 0 0 0 .126 2.301c.01.051.03.1.041.15.044.181.097.36.159.536a4.736 4.736 0 0 0 .303.676c.11.209.235.41.374.6l.004.005a4.035 4.035 0 0 0 1.483 1.317c.18.11.368.209.562.296l.037.014a8.722 8.722 0 0 0 4.046.422l.196-.013 16.654.419.123.002a4.846 4.846 0 0 0 3.487-8.209 4.848 4.848 0 0 0-3.367-1.484l-7.924-.199 12.838-12.837a4.848 4.848 0 0 0-6.855-6.856zm67.899 38.439l-5.744 5.462v-18.156a4.848 4.848 0 0 0-9.694 0v18.156l-5.747-5.464a4.848 4.848 0 0 0-6.677 7.028l12.832 12.208a8.346 8.346 0 0 0 1.706 1.527c.045.031.095.054.141.083a5.48 5.48 0 0 0 .962.462c.049.018.1.031.151.047.9.321 1.881.339 2.793.052.187-.047.372-.104.552-.172l.058-.027a8.725 8.725 0 0 0 3.144-2.554l12.203-11.628a4.843 4.843 0 0 0 .172-6.852 4.848 4.848 0 0 0-6.853-.172h.001zm64.72-38.25a4.903 4.903 0 0 0-4.967 4.724l-.198 7.926-12.838-12.838a4.854 4.854 0 0 0-3.427-1.42 4.857 4.857 0 0 0-3.427 1.42 4.854 4.854 0 0 0-1.42 3.427 4.854 4.854 0 0 0 1.42 3.427l12.837 12.838-7.925.199a4.85 4.85 0 0 0-4.722 4.906 4.849 4.849 0 0 0 4.842 4.787l.123-.002 17.706-.441c.767.066 1.54.023 2.295-.127.062-.011.12-.035.181-.049a4.803 4.803 0 0 0 1.049-.382c.037-.018.074-.039.112-.058a4.38 4.38 0 0 0 1.954-1.889 5.14 5.14 0 0 0 .286-.545l.015-.041a8.697 8.697 0 0 0 .423-4.038l-.013-.198.418-16.659a4.84 4.84 0 0 0-2.879-4.551 4.828 4.828 0 0 0-1.845-.416zm34.419-48.04a5.39 5.39 0 0 0 .275-.507 4.698 4.698 0 0 0 .263-.692c.07-.226.123-.456.159-.69l.001-.01a4.024 4.024 0 0 0-.116-1.967 5.22 5.22 0 0 0-.19-.612l-.014-.03a8.681 8.681 0 0 0-2.561-3.16l-11.631-12.206a4.836 4.836 0 0 0-3.39-1.505 4.848 4.848 0 0 0-3.634 8.186l5.462 5.744h-18.156c-1.286 0-2.518.51-3.427 1.42a4.841 4.841 0 0 0 0 6.854 4.841 4.841 0 0 0 3.427 1.42h18.156l-5.462 5.744a4.856 4.856 0 0 0-1.333 3.462 4.846 4.846 0 0 0 8.358 3.219l12.209-12.834a8.244 8.244 0 0 0 1.535-1.715c.026-.038.044-.082.069-.121z" fill="#fff"/></svg>