<svg width="22" height="22" fill="none" xmlns="http://www.w3.org/2000/svg"><mask id="path-1-inside-1" fill="#fff"><path fill-rule="evenodd" clip-rule="evenodd" d="M21.673.327a1.118 1.118 0 0 0-1.581 0L11 9.42 1.909.327A1.118 1.118 0 0 0 .327 1.91L9.42 11 .327 20.091a1.118 1.118 0 1 0 1.582 1.581L11 12.582l9.091 9.09a1.118 1.118 0 1 0 1.581-1.58L12.582 11l9.09-9.091a1.118 1.118 0 0 0 0-1.582z"/></mask><path fill-rule="evenodd" clip-rule="evenodd" d="M21.673.327a1.118 1.118 0 0 0-1.581 0L11 9.42 1.909.327A1.118 1.118 0 0 0 .327 1.91L9.42 11 .327 20.091a1.118 1.118 0 1 0 1.582 1.581L11 12.582l9.091 9.09a1.118 1.118 0 1 0 1.581-1.58L12.582 11l9.09-9.091a1.118 1.118 0 0 0 0-1.582z" fill="#fff" fill-opacity=".8"/><path d="M20.091.327l.708.708-.707-.708zm1.582 0l-.707.708.707-.708zM11 9.42l-.707.707.707.707.707-.707L11 9.419zM1.909.327l.707-.707-.707.707zm-1.582 0L-.38-.38l.707.707zm0 1.582l.708-.708-.708.708zM9.42 11l.707.707.707-.707-.707-.707L9.42 11zM.327 20.091l-.707-.707.707.707zm0 1.581l.708-.707-.708.707zm1.582 0l-.708-.707.708.707zM11 12.582l.707-.708-.707-.707-.707.707.707.707zm10.672 7.51l-.707.707.707-.708zM12.582 11l-.708-.707-.707.707.707.707.707-.707zm9.09-9.091l.708.707-.707-.707zm-.873-.874a.118.118 0 0 1 .166 0L22.38-.38a2.118 2.118 0 0 0-2.996 0L20.8 1.035zm-9.092 9.091L20.8 1.035 19.384-.38l-9.091 9.092 1.414 1.414zM1.201 1.035l9.092 9.091 1.414-1.414L2.616-.38 1.2 1.035zm-.166 0a.118.118 0 0 1 .166 0L2.616-.38a2.118 2.118 0 0 0-2.996 0l1.415 1.415zm0 .166a.118.118 0 0 1 0-.166L-.38-.38a2.118 2.118 0 0 0 0 2.996L1.035 1.2zm9.091 9.092L1.035 1.2-.38 2.616l9.092 9.091 1.414-1.414zM1.035 20.799l9.091-9.092-1.414-1.414-9.092 9.091L1.035 20.8zm0 .166a.118.118 0 0 1 0-.166L-.38 19.384a2.118 2.118 0 0 0 0 2.996l1.415-1.415zm.167 0a.118.118 0 0 1-.167 0L-.38 22.38a2.118 2.118 0 0 0 2.996 0L1.2 20.965zm9.09-9.091l-9.09 9.091 1.414 1.415 9.091-9.092-1.414-1.414zM20.8 20.965l-9.092-9.091-1.414 1.414 9.091 9.092 1.415-1.415zm.166 0a.118.118 0 0 1-.166 0l-1.415 1.415a2.118 2.118 0 0 0 2.996 0l-1.415-1.415zm0-.166a.118.118 0 0 1 0 .166l1.415 1.415a2.118 2.118 0 0 0 0-2.996L20.965 20.8zm-9.091-9.092l9.091 9.091 1.415-1.414-9.092-9.091-1.414 1.414zm9.091-10.506l-9.091 9.092 1.414 1.414 9.092-9.091L20.965 1.2zm0-.166a.118.118 0 0 1 0 .166l1.415 1.415a2.118 2.118 0 0 0 0-2.996l-1.415 1.415z" fill="#000" mask="url(#path-1-inside-1)"/></svg>