<svg width="90" height="90" fill="none" xmlns="http://www.w3.org/2000/svg"><g filter="url(#filter0_d)"><path fill-rule="evenodd" clip-rule="evenodd" d="M45 71c-16.569 0-30-13.431-30-30 0-16.569 13.431-30 30-30 16.569 0 30 13.431 30 30 0 16.569-13.431 30-30 30zm13.632-26.384a86.506 86.506 0 0 1-.948-.9c-1.066-1.03-1.135-1.628-.276-2.816a85.736 85.736 0 0 1 1.533-2.046c.455-.595.91-1.19 1.35-1.794l.1-.137c.85-1.165 1.701-2.333 2.147-3.724.294-.921.033-1.327-.92-1.488a3.007 3.007 0 0 0-.498-.03l-5.65-.005c-.696-.013-1.081.288-1.327.9-.331.826-.673 1.653-1.07 2.448-.897 1.81-1.9 3.557-3.305 5.036l-.061.064c-.296.313-.626.663-1.112.505-.648-.236-.838-1.295-.828-1.651l-.005-6.464c-.126-.922-.332-1.333-1.256-1.514h-5.87c-.782 0-1.175.302-1.592.786-.24.28-.315.464.182.557.973.183 1.522.809 1.666 1.775.236 1.549.218 3.1.084 4.654-.04.452-.12.906-.3 1.328-.283.665-.741.8-1.344.392-.544-.37-.926-.894-1.301-1.419-1.408-1.97-2.53-4.096-3.447-6.33-.266-.646-.722-1.037-1.41-1.047a143.66 143.66 0 0 0-5.085.002c-1.02.017-1.324.51-.909 1.426 1.846 4.07 3.9 8.027 6.582 11.63 1.377 1.85 2.96 3.483 5 4.64 2.315 1.314 4.807 1.708 7.432 1.585 1.229-.056 1.599-.374 1.654-1.587.04-.83.134-1.656.547-2.402.405-.733 1.02-.873 1.73-.416.354.228.65.516.934.823.224.243.445.488.666.733a44.86 44.86 0 0 0 1.41 1.517c.9.907 1.968 1.442 3.308 1.332l5.194.002c.835-.055 1.27-1.072.79-1.995-.34-.65-.783-1.228-1.252-1.788-.78-.926-1.661-1.754-2.543-2.582z" fill="#fff" fill-opacity=".8"/></g><defs><filter id="filter0_d" x="0" y="0" width="90" height="90" filterUnits="userSpaceOnUse" color-interpolation-filters="sRGB"><feFlood flood-opacity="0" result="BackgroundImageFix"/><feColorMatrix in="SourceAlpha" values="0 0 0 0 0 0 0 0 0 0 0 0 0 0 0 0 0 0 127 0"/><feOffset dy="4"/><feGaussianBlur stdDeviation="7.5"/><feColorMatrix values="0 0 0 0 0.576471 0 0 0 0 0.494118 0 0 0 0 0.423529 0 0 0 0.05 0"/><feBlend in2="BackgroundImageFix" result="effect1_dropShadow"/><feBlend in="SourceGraphic" in2="effect1_dropShadow" result="shape"/></filter></defs></svg>