<svg width="126" height="35" fill="none" xmlns="http://www.w3.org/2000/svg"><path d="M23.766.001a1 1 0 1 0 0 2v-2zm78.468 35a1 1 0 1 0 0-2v2zm3.827-2a1 1 0 0 0 0 2v-2zm-88.561-31a1 1 0 1 0 0-2v2zm107.5 15.5h1-1zm0 0h1-1zm-123 0v-1H0v1h2zm21.766-15.5H108.5v-2H23.766v2zm78.468 31H17.5v2h84.734v-2zm6.266 0h-2.439v2h2.439v-2zm-92-31h1v-2h-1v2zM0 17.501c0 9.665 7.835 17.5 17.5 17.5v-2c-8.56 0-15.5-6.94-15.5-15.5H0zm124 0c0 8.56-6.94 15.5-15.5 15.5v2c9.665 0 17.5-7.835 17.5-17.5h-2zm2 0c0-9.665-7.835-17.5-17.5-17.5v2c8.56 0 15.5 6.94 15.5 15.5h2zm-124-1c0-8.008 6.492-14.5 14.5-14.5v-2C7.387.001 0 7.388 0 16.501h2z" fill="url(#paint0_linear)"/><defs><linearGradient id="paint0_linear" x1="1" y1="17.501" x2="125" y2="17.501" gradientUnits="userSpaceOnUse"><stop stop-color="#F48922"/><stop offset="1" stop-color="#FFB015"/></linearGradient></defs></svg>