<svg width="174" height="140" fill="none" xmlns="http://www.w3.org/2000/svg"><path d="M162.178 12.681c-14.928-15.607-39.6-16.985-56.146-3.148L86.864 25.558 67.696 9.533C51.14-4.307 26.478-2.923 11.551 12.682 3.61 20.983-.575 32.344.064 43.852c.641 11.496 6.05 22.314 14.851 29.672l8.457 7.067c-1.757 4.104-1.446 8.925 1.297 12.53 2.09 2.745 5.112 4.47 8.51 4.849.82.09 1.635.106 2.442.036a12.55 12.55 0 0 0 4.728 11.437c2.49 1.955 5.594 2.776 8.68 2.496a12.533 12.533 0 0 0 4.714 11.506c2.491 1.956 5.592 2.799 8.682 2.496a12.534 12.534 0 0 0 4.717 11.51c2.165 1.703 4.81 2.549 7.484 2.549 2.936 0 5.905-1.017 8.32-3.036l1.078-.902a12.344 12.344 0 0 0 8.31 3.201 12.36 12.36 0 0 0 8.544-3.4 12.588 12.588 0 0 0 3.888-9.185c-.003-.311-.078-.611-.104-.919.569.079 1.138.154 1.712.154 3.081 0 6.157-1.131 8.541-3.397a12.586 12.586 0 0 0 3.887-9.182c-.002-.311-.078-.614-.103-.922.568.078 1.14.154 1.714.154 3.079 0 6.157-1.137 8.538-3.403a12.57 12.57 0 0 0 3.891-9.18c-.003-.313-.079-.613-.104-.924.569.079 1.137.154 1.711.154 3.082 0 6.16-1.134 8.544-3.4a12.592 12.592 0 0 0 3.888-9.185 12.554 12.554 0 0 0-.336-2.706c.028-.022.061-.028.089-.053l12.188-10.345c8.801-7.358 14.21-18.173 14.851-29.672.63-11.51-3.554-22.868-11.495-31.17zM18.512 69.221C10.786 62.763 6.22 53.643 5.66 43.539c-.563-10.109 2.97-19.694 9.941-26.985C28.498 3.068 49.806 1.869 64.103 13.83l45.618 38.14a6.951 6.951 0 0 1 2.499 4.997 6.96 6.96 0 0 1-1.933 5.25 6.844 6.844 0 0 1-9.291.607L80.338 46.18a2.793 2.793 0 0 0-3.936.423c-.005.008-.005.017-.011.022l-.022-.02c-3.415 4.328-8.516 6.81-13.995 6.81-9.862 0-17.885-8.092-17.885-18.033h-5.602c0 8.736 4.748 16.364 11.767 20.453L26.996 75.62c-.137.114-.24.257-.372.378l-8.112-6.776zm52.09 63.827c-1.673-1.317-2.65-3.275-2.682-5.373a6.894 6.894 0 0 1 2.471-5.42l1.496-1.252c.409 2.84 1.725 5.498 3.851 7.454l4.118 3.787-.51.426c-2.594 2.165-6.272 2.324-8.745.378zm26.408-1.247c-2.574 2.454-6.647 2.496-9.277.076l-8.205-7.546a6.85 6.85 0 0 1-2.23-5.045 6.852 6.852 0 0 1 2.149-5.076 6.766 6.766 0 0 1 4.678-1.862c1.65 0 3.3.593 4.596 1.787l2.695 2.479 5.521 5.081a6.86 6.86 0 0 1 2.221 5.028 6.856 6.856 0 0 1-2.148 5.078zm14.036-13.347c-2.58 2.448-6.65 2.487-9.274.078l-1.031-.949-.022-.025-7.154-6.58a6.859 6.859 0 0 1-2.23-5.039 6.854 6.854 0 0 1 2.148-5.079 6.781 6.781 0 0 1 4.678-1.862 6.78 6.78 0 0 1 4.6 1.789l8.204 7.547a6.848 6.848 0 0 1 2.23 5.044 6.86 6.86 0 0 1-2.149 5.076zm14.039-13.353c-2.579 2.454-6.649 2.49-9.274.076l-8.207-7.55a6.855 6.855 0 0 1-2.23-5.041 6.847 6.847 0 0 1 2.148-5.076 6.777 6.777 0 0 1 4.681-1.863c1.65 0 3.3.594 4.594 1.787l5.977 5.5 2.236 2.058a6.857 6.857 0 0 1 2.221 5.036 6.844 6.844 0 0 1-2.146 5.073zm14.039-13.35c-2.579 2.454-6.652 2.487-9.277.078l-1.033-.952c-.009-.005-.012-.017-.02-.022l-6.373-5.863-.778-.717a6.85 6.85 0 0 1-2.23-5.045 6.849 6.849 0 0 1 2.149-5.076 6.755 6.755 0 0 1 4.675-1.862 6.78 6.78 0 0 1 4.599 1.79l8.207 7.549a6.86 6.86 0 0 1 2.23 5.039 6.857 6.857 0 0 1-2.149 5.081zm28.944-48.213c-.56 10.101-5.126 19.224-12.868 25.698l-11.246 9.546c-.362-.437-.704-.888-1.124-1.275l-8.207-7.549c-4.781-4.394-12.216-4.341-16.927.14a12.585 12.585 0 0 0-3.888 9.183c.003.31.079.61.104.918-3.625-.501-7.429.566-10.255 3.25a12.578 12.578 0 0 0-3.888 9.182c.003.31.078.61.104.918-3.625-.501-7.429.56-10.255 3.247a12.59 12.59 0 0 0-3.888 9.185c.003.311.078.61.103.916-3.624-.502-7.425.563-10.251 3.249-.732.695-1.337 1.49-1.874 2.33a2.86 2.86 0 0 0-1.014.535l-5.891 4.93c-.003.003-.009.003-.011.006l-.85.711c-2.59 2.163-6.265 2.328-8.744.379a6.95 6.95 0 0 1-2.678-5.373 6.897 6.897 0 0 1 2.46-5.412l.013-.011L86.13 83.877l-3.593-4.3-29.138 24.364.003.003h-.005l-.846.709c-2.594 2.171-6.27 2.328-8.745.381a6.959 6.959 0 0 1-2.68-5.378 6.896 6.896 0 0 1 2.461-5.41l.011-.008 29.546-24.705-3.593-4.3-29.546 24.706a.091.091 0 0 0-.017.017l-1.081.899c-1.437 1.204-3.25 1.736-5.11 1.543-1.86-.21-3.52-1.16-4.675-2.675-2.198-2.894-1.546-7.294 1.46-9.807l25.921-21.675c1.877.488 3.835.776 5.86.776a23.27 23.27 0 0 0 16.504-6.826l18.605 14.992c5.087 4.106 12.331 3.633 16.857-1.096a12.67 12.67 0 0 0 3.479-9.434 12.667 12.667 0 0 0-4.496-8.983L91.228 29.205l18.392-15.378c14.297-11.963 35.608-10.764 48.502 2.723 6.98 7.294 10.512 16.88 9.946 26.988z" fill="#F1ECE8" fill-opacity=".7"/></svg>